<?xml version="1.0" encoding="UTF-8"?><svg id="Capa_2" xmlns="http://www.w3.org/2000/svg" xmlns:xlink="http://www.w3.org/1999/xlink" viewBox="0 0 221.11 265.66"><defs><linearGradient id="Degradado_sin_nombre_3" x1="10.65" y1="103.76" x2="221.11" y2="103.76" gradientUnits="userSpaceOnUse"><stop offset="0" stop-color="#d7afa0"/><stop offset="1" stop-color="#ce937a"/></linearGradient></defs><g id="Iconos_campos_de_formulario"><path d="m147.41,198.83s.03,0,.05.01c-.86-.21-1.73-.42-2.59-.63.85.21,1.69.41,2.54.62Z" style="fill:none;"/><path d="m160.29,201.81s.01,0,.02,0c-.81-.18-1.62-.36-2.43-.54.8.18,1.6.36,2.41.54Z" style="fill:none;"/><path d="m160.29,201.81s.01,0,.02,0c-.81-.18-1.62-.36-2.43-.54.8.18,1.6.36,2.41.54Z" style="fill:none;"/><path d="m147.41,198.83s.03,0,.05.01c-.86-.21-1.73-.42-2.59-.63.85.21,1.69.41,2.54.62Z" style="fill:none;"/><path d="m99.17,184.04c.32.13.64.26.96.39.85.33,1.71.64,2.56.96-.85-.32-1.71-.63-2.55-.96-.32-.12-.64-.26-.96-.38Z" style="fill:none;"/><path d="m199.74,37.57C178.87,9,140.35-3.65,106.08.91,65.56,6.3,31.59,32.03,16.73,69.97c-3.41,8.7-6.35,19.23-6.06,28.69.25,8.05,2.54,16,4.23,23.82.75,3.51,1.27,6.87,1.4,10.17.31.39.65.81,1.02,1.25,23.1,17.93,48.43,35.82,75.53,47.53,3.76,1.56,7.48,3.05,11.12,4.43.22.08.43.16.65.24,1.05.39,2.11.76,3.16,1.13.66.23,1.31.47,1.97.7,1.02.35,2.03.7,3.05,1.04.69.23,1.38.47,2.08.69,1.01.33,2.01.66,3.02.98.7.22,1.39.44,2.09.66,1.02.32,2.03.63,3.05.94.68.2,1.35.41,2.03.61,1.05.31,2.1.62,3.16.92.61.18,1.22.35,1.83.52,1.12.32,2.25.63,3.37.94.47.13.95.25,1.42.38,1.27.34,2.54.68,3.81,1.02.07.02.15.04.22.06,1.91.5,3.83.98,5.75,1.46.08.02.17.04.25.06.86.21,1.73.42,2.59.63.95.23,1.91.47,2.86.69,1.21.29,2.43.57,3.64.85.67.15,1.34.31,2.01.46.64.14,1.27.28,1.91.43.81.18,1.62.36,2.43.54.41.09.81.18,1.22.27,0,0,0,0,0,0,.25.06.5.11.75.16,1.43.31,2.87.63,4.3.93.11.02.23.05.34.07,2.53.54,5.06,1.06,7.59,1.59.61.13,1.21.25,1.82.38,2.46.5,4.92,1,7.38,1.5,2.36.33,4.55.59,6.56.81.06-.96.19-1.89.4-2.77,2.28-9.74,9.82-18.84,13.85-27.98,4.33-9.83,8.08-20.12,10.99-30.44,10.29-36.58,7.15-77.37-15.77-108.76Z" style="fill:url(#Degradado_sin_nombre_3);"/><path d="m183.71,206.71c-2.46-.49-4.92-.99-7.38-1.5-.61-.12-1.22-.25-1.82-.38-2.53-.52-5.06-1.05-7.59-1.59-.11-.02-.23-.05-.34-.07-1.44-.31-2.87-.62-4.3-.93-.25-.05-.5-.11-.75-.16,0,0,0,0,0,0-.41-.09-.81-.18-1.22-.27,0,0-.01,0-.02,0-.8-.18-1.6-.36-2.41-.54-.64-.14-1.27-.28-1.91-.43-.67-.15-1.34-.31-2.01-.46-1.21-.28-2.43-.56-3.64-.85-.96-.23-1.91-.46-2.86-.69-.02,0-.03,0-.05-.01-.85-.21-1.7-.41-2.54-.62-.08-.02-.17-.04-.25-.06-1.92-.48-3.83-.96-5.75-1.46-.07-.02-.15-.04-.22-.06-1.27-.33-2.54-.67-3.81-1.02-.47-.13-.95-.25-1.42-.38-1.12-.31-2.25-.62-3.37-.94-.61-.17-1.22-.34-1.83-.52-1.05-.3-2.11-.61-3.16-.92-.68-.2-1.35-.4-2.03-.61-1.02-.31-2.03-.62-3.05-.94-.7-.22-1.39-.44-2.09-.66-1.01-.32-2.02-.65-3.02-.98-.69-.23-1.38-.46-2.08-.69-1.02-.34-2.03-.69-3.05-1.04-.66-.23-1.31-.46-1.97-.7-1.05-.37-2.11-.75-3.16-1.13-.22-.08-.43-.16-.65-.24-3.65-1.39-7.36-2.87-11.12-4.43-27.11-11.71-52.44-29.6-75.53-47.53-.37-.44-.71-.86-1.02-1.25.24,5.65-.65,11.12-3.42,16.87-2.12,4.42-5.13,8.47-7.67,12.65-1.77,2.92-5.14,7.46-5.19,11.46-.05,3.82,0,3.54,0,3.5,2.79,7.81,14.76,4.15,16.71,13.94.64,3.18-1.15,8.24.45,11.21,1.21,2.26,3.69,1.79,5.21,3.53-1.99,4.57-3.25,7.39,1.54,10.27,3.58,2.15,5.33,1.78,6.08,6.3,1.69,10.15-3.31,18.53,8.55,23.47,9.15,3.81,19.91.93,29.23-.78,5.94-1.09,10.97-2.67,16.59-4.67,4.48-1.59,5.61-.76,7.78,3.32,2.45,4.59,3.89,9.38,4.9,14.48,1.19,6.01,1.42,6.88,7.5,6.99,12.08.23,24.18-.01,36.26-.01,12.08-.01,24.16-.01,36.25-.02,11.08-.01,23.56,1.57,34.38-.82-5.34-9.55-9.86-18.94-13.87-29.12-2.95-7.51-7.93-18.89-7.31-27.7-2.01-.22-4.2-.48-6.56-.81Zm-83.58-22.29c-.32-.12-.64-.26-.96-.39.32.13.64.26.96.38.85.33,1.7.64,2.55.96-.85-.32-1.71-.63-2.56-.96Z" style="fill:#e9d7d0;"/><path d="m34.97,111.63c2.92,0,5.64-.79,8-2.16,6.23,5.93,14.14,13.24,20.15,18.07,9.04,7.27,21.45,12.77,27,15.03-.09.68-.15,1.36-.15,2.06,0,8.84,7.16,16,16,16,5.32,0,10.02-2.61,12.93-6.6,7.42,2.4,17.06,5.46,23.05,7.09,7.19,1.96,17.45,4.77,23.29,6.37,1.35,7.47,7.87,13.14,15.73,13.14,8.84,0,16-7.16,16-16,0-5.24-2.53-9.87-6.42-12.79,1.94-3.96,4.26-9.33,5.72-14.9,1.91-7.3,2.99-15.52,3.48-20.04,6.5-2.03,11.22-8.1,11.22-15.27,0-7.64-5.36-14.02-12.53-15.61-1.27-6.04-3.7-15.96-7.21-23.22-3.16-6.54-9.29-14.07-13.86-19.23,1.02-2.1,1.6-4.45,1.6-6.94,0-8.84-7.16-16-16-16-5.32,0-10.03,2.61-12.94,6.61-7.3-2.65-18.18-5.99-28.93-6.99-14.71-1.36-25.89,2.75-30.36,4.77-2.92-3.88-7.55-6.39-12.77-6.39-8.84,0-16,7.16-16,16,0,1.41.2,2.77.54,4.07-6.23,5.24-13.46,12.1-16.9,18.13-4.59,8.04-8.35,17.83-10.14,22.82-.17,0-.33-.03-.5-.03-8.84,0-16,7.16-16,16s7.16,16,16,16Zm71,17c-5.09,0-9.62,2.39-12.55,6.1-5.07-2.07-16.81-7.24-24.97-13.81-5.7-4.58-13.39-11.69-19.5-17.51.85-1.53,1.45-3.21,1.77-4.99,8.81.84,23.3,2.12,32.86,2.46.71.03,1.43.04,2.16.04,10.4,0,21.86-2.42,27.61-3.82,1.38,3.11,3.71,5.69,6.64,7.38l-10.72,24.5c-1.06-.22-2.16-.34-3.29-.34Zm60.08,30.26c-5.98-1.64-15.22-4.17-21.86-5.98-5.67-1.55-14.98-4.5-22.29-6.86.04-.47.07-.94.07-1.43,0-4.64-1.99-8.81-5.15-11.73l11.5-26.28c3.22-.07,6.21-1.09,8.7-2.79,10.81,13.14,23.41,33.97,32.32,49.84-1.42,1.5-2.54,3.27-3.3,5.23Zm21.99-24.1c-1.35,5.18-3.63,10.3-5.43,13.92-.54-.05-1.08-.08-1.64-.08-1.51,0-2.97.22-4.36.62-8.5-15.15-21.9-37.64-34.08-52.02.01-.02.02-.05.03-.07,13.19,1.88,26.56,3.98,36.46,5.78.56,6.94,5.54,12.61,12.13,14.22-.52,4.43-1.51,11.49-3.12,17.63Zm-32.31-83.9c2.18,1.11,4.63,1.75,7.24,1.75,3.23,0,6.22-.96,8.74-2.61,4.13,4.71,9.28,11.13,11.87,16.48,2.88,5.96,5.02,14.31,6.26,19.98-4.04,1.37-7.35,4.31-9.21,8.09-3.94-.72-8.72-1.54-14.58-2.47-8.4-1.34-16.69-2.56-22.2-3.35-.42-3.55-2-6.75-4.35-9.2,5.72-10.74,11.55-21.1,16.23-28.67Zm-61.76-16.25c0-.57-.03-1.14-.09-1.69,3.14-1.48,13.06-5.46,26.44-4.22,9.75.9,19.89,4.02,26.72,6.49-.04.47-.07.94-.07,1.41,0,3.08.89,5.95,2.4,8.39-2.66,4.21-5.91,9.69-9.92,16.87-2.57,4.6-5.06,9.21-7.25,13.32-1.35-.37-2.76-.58-4.23-.58-3.11,0-6.01.9-8.47,2.44-10.22-9.56-21.34-23.13-28.82-32.76,2.05-2.69,3.28-6.04,3.28-9.68Zm-40.97,26.42c2.57-4.51,8.33-10.12,13.89-14.89,2.88,2.77,6.78,4.48,11.08,4.48,2.1,0,4.1-.42,5.94-1.15,7.62,9.83,19.03,23.74,29.84,33.84-.84,1.63-1.41,3.42-1.64,5.32-5.35,1.33-17.94,4.11-28.24,3.74-9.85-.34-25.54-1.77-34.01-2.59-1.24-3.15-3.44-5.81-6.25-7.62,1.75-4.82,5.27-13.9,9.39-21.12Z" style="fill:#fdfdfd;"/></g></svg>