<?xml version="1.0" encoding="UTF-8"?><svg id="Capa_2" xmlns="http://www.w3.org/2000/svg" xmlns:xlink="http://www.w3.org/1999/xlink" viewBox="0 0 680.82 267.71"><defs><linearGradient id="Degradado_sin_nombre_3" x1="10.65" y1="104.19" x2="221.11" y2="104.19" gradientUnits="userSpaceOnUse"><stop offset="0" stop-color="#d7afa0"/><stop offset="1" stop-color="#ce937a"/></linearGradient></defs><g id="Iconos_campos_de_formulario"><path d="m256.61,149.27c4.63-6.62,4.32-12.19,4.32-38.71.04-14.21.08-28.43.12-42.64.04-14.54.08-29.07.13-43.61,0-1.44-.87-7.05.67-7.66,1.97-.79,3.61,2.6,4.5,3.81,4.12,5.61,8.22,11.22,12.81,16.45,17.75,20.21,39.69,36.84,59.98,54.36,9.63,8.32,19.64,16.41,21.9,29.71,1.82,10.72-3.84,21.57-14.05,25.73-5.88,2.39-12.87,2.44-19.11,2.53-8.32.11-16.64.05-24.96.06-15.44.01-30.88-.01-46.31-.01Zm14.9-114.71v110.88c9.79.58,49.28.66,59,0,7.18-.49,14.32-3.43,17.7-10.15,3.24-6.45,2.95-14.75.34-21.34-6.57-16.55-22.63-28.7-35.61-40.03-14.3-12.48-28.64-25.35-41.44-39.37Z" style="fill:#46a7b7;"/><path d="m607.43,51.78v78.56c2.52-3.16,3.8-7.46,5.46-11.14,1.91-4.24,3.89-8.44,5.85-12.66,3.58-7.72,7.13-15.46,11.17-22.95,6.41-11.89,16.94-32.18,32.4-33.5,9.23-.79,12.41,6.06,13.41,13.99,1.19,9.45.44,19.34.48,28.86.04,9.73.09,19.47.17,29.2.07,8.84-1.36,19.56,4.45,27.02h-18.89c4.74-10.31,3.77-21.04,3.86-32.18.09-10.79.15-21.57.2-32.36.02-5.39.14-10.79.06-16.18-.06-4.01-.53-9.07-4.91-10.64-7.88-2.83-15.16,7.37-18.92,12.74-12.04,17.22-19.48,37.2-28.33,56.13-2.23,4.78-4.52,9.54-6.82,14.29-1.04,2.16-3.77,10.36-7.41,9.52-3.5-.81-2.38-7.84-2.38-10.09,0-5.82,0-11.63.01-17.45.01-12.28.02-24.56-.01-36.84-.03-11.87.41-23.18-4.06-34.32h14.21Z" style="fill:#46a7b7;"/><path d="m459.42,234.56c0,6.07-.28,12.16.19,18.22.39,5.06,2.12,8.68,4,13.25-20.52,0-41.17-.65-61.67.17-7.22.29-19.48,1.52-23.19-6.3-3.71-7.83-.85-18.25,3.39-25.26,9.52-15.77,28.19-25.23,45.03-30.98,4.31-1.47,8.74-2.52,13.17-3.56,1.91-.45,4.76-.56,6.53-1.3,2.19-.92,1.74-1.71,1.37-4.11-1.22-8.07-4.49-16.36-11.86-20.69-8.81-5.18-21.06-3.79-30.17-.34-9.83,3.73-16.67,9.84-24.74,16.21-.26-3.3-1.43-9.79.88-12.58,2.6-3.14,9.76-4.73,13.42-6.09,11.79-4.38,24.92-5.65,37.25-2.74,11.22,2.65,20.44,10.29,24.12,21.38,4.53,13.62,2.23,29.66,2.31,43.77-.02.32-.03.64-.05.95Zm-10.28-31.92c-13.11,1.47-25.91,6.25-37.22,12.96-9.74,5.77-20.38,14.16-23.07,25.78-1.14,4.92-.81,11.29,2.65,15.29,3.67,4.25,9.2,3.7,14.29,3.74,14.25.1,29.15,1.22,43.35-.08v-57.68Z" style="fill:#46a7b7;"/><path d="m468.83,72.51c0-2.7-1.11-9.38.42-11.71,1.45-2.2,6.24-3.33,8.56-4.31,6.73-2.85,13.63-5.13,20.91-5.94,13.8-1.53,29.44.09,39.31,10.98,10.26,11.33,8.5,27.21,8.61,41.33.07,8.21.15,16.42.22,24.63.03,3.91.05,7.88.62,11.76.56,3.84,2.09,6.41,3.79,9.82-20.35.9-40.85-.08-61.23.16-7.4.09-20.55,1.87-24.05-6.69-3.32-8.13-.52-17.8,3.79-24.96,9.24-15.34,27.02-24.5,43.42-30.03,4.28-1.44,8.6-2.88,12.97-4.02,2.21-.58,4.43-.84,6.67-1.22,2.79-.48,3.32-.53,3.06-3.43-.7-7.83-4.1-16.25-10.72-20.85-8.35-5.81-20.85-5.07-30.01-1.88-9.86,3.43-18.49,9.42-25.98,16.61-.13-.08-.26-.17-.39-.25Zm67.77,13.25c-13.44,1.59-26.14,6.63-37.83,13.35-9.66,5.56-20.07,14.36-22.53,25.79-1.06,4.92-.67,11.18,2.92,15.07,3.83,4.15,9.42,3.62,14.58,3.64,14.2.06,28.68.8,42.86-.06v-57.78Z" style="fill:#46a7b7;"/><path d="m577.61,216.83c1.84,18.18,6.12,36.35,25.21,43.27,9.46,3.43,21.3,2.62,30.64-.82,4.06-1.49,8.05-3.45,11.36-6.27,1.92-1.63,3.3-3.5,4.8-5.49,1.77-2.35,2.26-2.14,5.15-1.1-11.35,20.45-41.45,26.76-61.47,16.35-21.68-11.27-31.34-38.88-24.7-61.86,6.69-23.16,27.38-35.68,51.09-33.74,21.16,1.73,37.36,17.39,37.36,39,0,2.61.36,7.73-1.72,9.8-1.87,1.86-6.53.87-8.85.87-7.59,0-15.17,0-22.76,0-15.37,0-30.74,0-46.11,0Zm34.62-3.86c9.03,0,18.06,0,27.09,0,4.67,0,7.55,1.33,7.83-4.03.21-4.03,0-8.33-.38-12.34-1.67-17.18-15.54-26.12-31.87-25.82-16.05.3-29.1,11.73-33.91,26.77-1.18,3.69-2,7.56-2.74,11.36-.96,4.92,1.06,4.05,5.56,4.05,9.48,0,18.95,0,28.43,0Z" style="fill:#46a7b7;"/><path d="m388.08,128.29c8.26-20.57,14.73-42.8,27.8-60.99,5.75-8,13.86-15.97,24.11-17.11,3.02-.34,11.34-.88,13.79,1.39,2.14,1.98.76,9.38.76,11.99-13.71-3.45-25.38-.51-34.81,10.28-9.62,11-16.03,24.9-21.57,38.28-2.97,7.18-5.61,14.48-8.47,21.71-1.28,3.23-5.39,16.72-9.62,16.71-4.83-.02-2.78-16.63-2.78-19.99,0-8.28,0-16.56,0-24.84,0-9.24,0-18.47-.03-27.71-.02-9.31-.05-17.91-4.26-26.4,3.45,0,6.9.05,10.34.01,3.88-.05,4.2-.21,4.24,3.65.09,8.02-.02,16.04-.02,24.06,0,16.18-.07,32.36.01,48.54-.01.35-.02.7-.03,1.05.17-.21.35-.42.52-.64Z" style="fill:#46a7b7;"/><path d="m556.44,180.05c-7.11-.91-13.79-2.46-20.71.33-6.47,2.6-11.94,7.56-16.29,12.91-9.11,11.2-14.84,24.94-20.27,38.18-2.88,7.03-5.71,14.09-8.53,21.14-1.04,2.6-5.79,18.05-10.24,13.96-2.08-1.91-1.16-6.5-1.16-8.94,0-4.22,0-8.44.01-12.66,0-8.12.02-16.24.02-24.35,0-9.42-.02-18.83-.08-28.25-.05-8.26-.77-16.17-4.14-23.71,3.64-.43,7.9-.4,11.56-.17,3.77.24,2.86,2.17,2.85,5.69-.02,7.94-.02,15.88-.03,23.82,0,15.81,0,31.61,0,47.42l.37.14c8.1-19.81,14.23-41,26.29-58.9,5.2-7.72,11.74-15.27,20.81-18.38,5.27-1.81,10.49-1.36,15.89-.54,2.8.43,3.37.4,3.63,3.28.27,2.97.02,6.07.02,9.06Z" style="fill:#46a7b7;"/><path d="m364.81,247.59c-8.61,15.55-26.42,20.13-43.11,19.9-15.42-.21-29.58-10.86-37.29-23.7-8.93-14.87-10.52-33.17-4.66-49.39,2.43-6.72,6.09-12.98,11.04-18.16,5.91-6.19,11.51-7.94,19.92-7.84,11.03.12,22.07.11,33.1.07,4.71-.02,11.02-1.17,15.58-.06,3.74.92,2.1,7.56,2.1,10.89-6.67-1.98-12.82-4.44-19.82-5.24-8.15-.93-16.37-.9-24.56-.82-3.78.04-7.56.1-11.34.08-4.34-.02-6.22.48-9.1,3.95-4.55,5.48-7.11,12.73-8.57,19.6-5.81,27.52,8.2,61.02,39.3,64.16,7.93.8,16.35-.13,23.44-3.95,3.07-1.65,5.79-3.84,7.99-6.55,2.16-2.67,2.51-5.26,5.96-2.95Z" style="fill:#46a7b7;"/><path d="m562.71,51.61h14.72c.86,16.6.09,33.43.09,50.06,0,15.87-2.41,32.65,4.13,47.47h-18.88c4.78-6.4,3.99-14.55,4.14-22.09.18-8.69.33-17.39.33-26.08,0-8.79.04-17.58-.02-26.37-.06-8,.02-16.08-4.5-22.99Z" style="fill:#46a7b7;"/><path d="m247.49,13.38V2.41c17.27-.88,34.77-.08,52.06-.08,8.72,0,17.43,0,26.15-.01,7.26,0,15.02.29,21.64,3.66,14.22,7.24,10.02,27.05,3.74,38.39-3.29,5.95-7.84,11.27-12.85,15.84-1.63,1.49-14.62,12.16-15.72,9.51,10.19-9.1,18.53-17.97,21.76-31.69,2.76-11.71,3.19-27.33-10.8-31.11-6.86-1.85-14.8-.87-21.84-.89-7.52-.02-15.05-.05-22.57.1-14.59.29-27.8,2.47-41.58,7.25Z" style="fill:#46a7b7;"/><path d="m459.42,234.56c.02-.32.03-.64.05-.95-.02.32-.03.64-.05.95Z" style="fill:#46a7b7;"/><path d="m388.08,128.29l-.52.64c.01-.35.02-.7.03-1.05.16.14.32.28.48.42Z" style="fill:#46a7b7;"/><path d="m147.41,199.26s.03,0,.05.01c-.86-.21-1.73-.42-2.59-.63.85.21,1.69.41,2.54.62Z" style="fill:none;"/><path d="m160.29,202.24s.01,0,.02,0c-.81-.18-1.62-.36-2.43-.54.8.18,1.6.36,2.41.54Z" style="fill:none;"/><path d="m160.29,202.24s.01,0,.02,0c-.81-.18-1.62-.36-2.43-.54.8.18,1.6.36,2.41.54Z" style="fill:none;"/><path d="m147.41,199.26s.03,0,.05.01c-.86-.21-1.73-.42-2.59-.63.85.21,1.69.41,2.54.62Z" style="fill:none;"/><path d="m99.17,184.47c.32.13.64.26.96.39.85.33,1.71.64,2.56.96-.85-.32-1.71-.63-2.55-.96-.32-.12-.64-.26-.96-.38Z" style="fill:none;"/><path d="m199.74,38C178.87,9.43,140.35-3.22,106.08,1.34,65.56,6.73,31.59,32.46,16.73,70.4c-3.41,8.7-6.35,19.23-6.06,28.69.25,8.05,2.54,16,4.23,23.82.75,3.51,1.27,6.87,1.4,10.17.31.39.65.81,1.02,1.25,23.1,17.93,48.43,35.82,75.53,47.53,3.76,1.56,7.48,3.05,11.12,4.43.22.08.43.16.65.24,1.05.39,2.11.76,3.16,1.13.66.23,1.31.47,1.97.7,1.02.35,2.03.7,3.05,1.04.69.23,1.38.47,2.08.69,1.01.33,2.01.66,3.02.98.7.22,1.39.44,2.09.66,1.02.32,2.03.63,3.05.94.68.2,1.35.41,2.03.61,1.05.31,2.1.62,3.16.92.61.18,1.22.35,1.83.52,1.12.32,2.25.63,3.37.94.47.13.95.25,1.42.38,1.27.34,2.54.68,3.81,1.02.07.02.15.04.22.06,1.91.5,3.83.98,5.75,1.46.08.02.17.04.25.06.86.21,1.73.42,2.59.63.95.23,1.91.47,2.86.69,1.21.29,2.43.57,3.64.85.67.15,1.34.31,2.01.46.64.14,1.27.28,1.91.43.81.18,1.62.36,2.43.54.41.09.81.18,1.22.27,0,0,0,0,0,0,.25.06.5.11.75.16,1.43.31,2.87.63,4.3.93.11.02.23.05.34.07,2.53.54,5.06,1.06,7.59,1.59.61.13,1.21.25,1.82.38,2.46.5,4.92,1,7.38,1.5,2.36.33,4.55.59,6.56.81.06-.96.19-1.89.4-2.77,2.28-9.74,9.82-18.84,13.85-27.98,4.33-9.83,8.08-20.12,10.99-30.44,10.29-36.58,7.15-77.37-15.77-108.76Z" style="fill:url(#Degradado_sin_nombre_3);"/><path d="m183.71,207.14c-2.46-.49-4.92-.99-7.38-1.5-.61-.12-1.22-.25-1.82-.38-2.53-.52-5.06-1.05-7.59-1.59-.11-.02-.23-.05-.34-.07-1.44-.31-2.87-.62-4.3-.93-.25-.05-.5-.11-.75-.16,0,0,0,0,0,0-.41-.09-.81-.18-1.22-.27,0,0-.01,0-.02,0-.8-.18-1.6-.36-2.41-.54-.64-.14-1.27-.28-1.91-.43-.67-.15-1.34-.31-2.01-.46-1.21-.28-2.43-.56-3.64-.85-.96-.23-1.91-.46-2.86-.69-.02,0-.03,0-.05-.01-.85-.21-1.7-.41-2.54-.62-.08-.02-.17-.04-.25-.06-1.92-.48-3.83-.96-5.75-1.46-.07-.02-.15-.04-.22-.06-1.27-.33-2.54-.67-3.81-1.02-.47-.13-.95-.25-1.42-.38-1.12-.31-2.25-.62-3.37-.94-.61-.17-1.22-.34-1.83-.52-1.05-.3-2.11-.61-3.16-.92-.68-.2-1.35-.4-2.03-.61-1.02-.31-2.03-.62-3.05-.94-.7-.22-1.39-.44-2.09-.66-1.01-.32-2.02-.65-3.02-.98-.69-.23-1.38-.46-2.08-.69-1.02-.34-2.03-.69-3.05-1.04-.66-.23-1.31-.46-1.97-.7-1.05-.37-2.11-.75-3.16-1.13-.22-.08-.43-.16-.65-.24-3.65-1.39-7.36-2.87-11.12-4.43-27.11-11.71-52.44-29.6-75.53-47.53-.37-.44-.71-.86-1.02-1.25.24,5.65-.65,11.12-3.42,16.87-2.12,4.42-5.13,8.47-7.67,12.65-1.77,2.92-5.14,7.46-5.19,11.46-.05,3.82,0,3.54,0,3.5,2.79,7.81,14.76,4.15,16.71,13.94.64,3.18-1.15,8.24.45,11.21,1.21,2.26,3.69,1.79,5.21,3.53-1.99,4.57-3.25,7.39,1.54,10.27,3.58,2.15,5.33,1.78,6.08,6.3,1.69,10.15-3.31,18.53,8.55,23.47,9.15,3.81,19.91.93,29.23-.78,5.94-1.09,10.97-2.67,16.59-4.67,4.48-1.59,5.61-.76,7.78,3.32,2.45,4.59,3.89,9.38,4.9,14.48,1.19,6.01,1.42,6.88,7.5,6.99,12.08.23,24.18-.01,36.26-.01,12.08-.01,24.16-.01,36.25-.02,11.08-.01,23.56,1.57,34.38-.82-5.34-9.55-9.86-18.94-13.87-29.12-2.95-7.51-7.93-18.89-7.31-27.7-2.01-.22-4.2-.48-6.56-.81Zm-83.58-22.29c-.32-.12-.64-.26-.96-.39.32.13.64.26.96.38.85.33,1.7.64,2.55.96-.85-.32-1.71-.63-2.56-.96Z" style="fill:#e9d7d0;"/><path d="m34.97,112.06c2.92,0,5.64-.79,8-2.16,6.23,5.93,14.14,13.24,20.15,18.07,9.04,7.27,21.45,12.77,27,15.03-.09.68-.15,1.36-.15,2.06,0,8.84,7.16,16,16,16,5.32,0,10.02-2.61,12.93-6.6,7.42,2.4,17.06,5.46,23.05,7.09,7.19,1.96,17.45,4.77,23.29,6.37,1.35,7.47,7.87,13.14,15.73,13.14,8.84,0,16-7.16,16-16,0-5.24-2.53-9.87-6.42-12.79,1.94-3.96,4.26-9.33,5.72-14.9,1.91-7.3,2.99-15.52,3.48-20.04,6.5-2.03,11.22-8.1,11.22-15.27,0-7.64-5.36-14.02-12.53-15.61-1.27-6.04-3.7-15.96-7.21-23.22-3.16-6.54-9.29-14.07-13.86-19.23,1.02-2.1,1.6-4.45,1.6-6.94,0-8.84-7.16-16-16-16-5.32,0-10.03,2.61-12.94,6.61-7.3-2.65-18.18-5.99-28.93-6.99-14.71-1.36-25.89,2.75-30.36,4.77-2.92-3.88-7.55-6.39-12.77-6.39-8.84,0-16,7.16-16,16,0,1.41.2,2.77.54,4.07-6.23,5.24-13.46,12.1-16.9,18.13-4.59,8.04-8.35,17.83-10.14,22.82-.17,0-.33-.03-.5-.03-8.84,0-16,7.16-16,16s7.16,16,16,16Zm71,17c-5.09,0-9.62,2.39-12.55,6.1-5.07-2.07-16.81-7.24-24.97-13.81-5.7-4.58-13.39-11.69-19.5-17.51.85-1.53,1.45-3.21,1.77-4.99,8.81.84,23.3,2.12,32.86,2.46.71.03,1.43.04,2.16.04,10.4,0,21.86-2.42,27.61-3.82,1.38,3.11,3.71,5.69,6.64,7.38l-10.72,24.5c-1.06-.22-2.16-.34-3.29-.34Zm60.08,30.26c-5.98-1.64-15.22-4.17-21.86-5.98-5.67-1.55-14.98-4.5-22.29-6.86.04-.47.07-.94.07-1.43,0-4.64-1.99-8.81-5.15-11.73l11.5-26.28c3.22-.07,6.21-1.09,8.7-2.79,10.81,13.14,23.41,33.97,32.32,49.84-1.42,1.5-2.54,3.27-3.3,5.23Zm21.99-24.1c-1.35,5.18-3.63,10.3-5.43,13.92-.54-.05-1.08-.08-1.64-.08-1.51,0-2.97.22-4.36.62-8.5-15.15-21.9-37.64-34.08-52.02.01-.02.02-.05.03-.07,13.19,1.88,26.56,3.98,36.46,5.78.56,6.94,5.54,12.61,12.13,14.22-.52,4.43-1.51,11.49-3.12,17.63Zm-32.31-83.9c2.18,1.11,4.63,1.75,7.24,1.75,3.23,0,6.22-.96,8.74-2.61,4.13,4.71,9.28,11.13,11.87,16.48,2.88,5.96,5.02,14.31,6.26,19.98-4.04,1.37-7.35,4.31-9.21,8.09-3.94-.72-8.72-1.54-14.58-2.47-8.4-1.34-16.69-2.56-22.2-3.35-.42-3.55-2-6.75-4.35-9.2,5.72-10.74,11.55-21.1,16.23-28.67Zm-61.76-16.25c0-.57-.03-1.14-.09-1.69,3.14-1.48,13.06-5.46,26.44-4.22,9.75.9,19.89,4.02,26.72,6.49-.04.47-.07.94-.07,1.41,0,3.08.89,5.95,2.4,8.39-2.66,4.21-5.91,9.69-9.92,16.87-2.57,4.6-5.06,9.21-7.25,13.32-1.35-.37-2.76-.58-4.23-.58-3.11,0-6.01.9-8.47,2.44-10.22-9.56-21.34-23.13-28.82-32.76,2.05-2.69,3.28-6.04,3.28-9.68Zm-40.97,26.42c2.57-4.51,8.33-10.12,13.89-14.89,2.88,2.77,6.78,4.48,11.08,4.48,2.1,0,4.1-.42,5.94-1.15,7.62,9.83,19.03,23.74,29.84,33.84-.84,1.63-1.41,3.42-1.64,5.32-5.35,1.33-17.94,4.11-28.24,3.74-9.85-.34-25.54-1.77-34.01-2.59-1.24-3.15-3.44-5.81-6.25-7.62,1.75-4.82,5.27-13.9,9.39-21.12Z" style="fill:#fdfdfd;"/><path d="m254.61,147.27c4.63-6.62,4.32-12.19,4.32-38.71.04-14.21.08-28.43.12-42.64.04-14.54.08-29.07.13-43.61,0-1.44-.87-7.05.67-7.66,1.97-.79,3.61,2.6,4.5,3.81,4.12,5.61,8.22,11.22,12.81,16.45,17.75,20.21,39.69,36.84,59.98,54.36,9.63,8.32,19.64,16.41,21.9,29.71,1.82,10.72-3.84,21.57-14.05,25.73-5.88,2.39-12.87,2.44-19.11,2.53-8.32.11-16.64.05-24.96.06-15.44.01-30.88-.01-46.31-.01Zm14.9-114.71v110.88c9.79.58,49.28.66,59,0,7.18-.49,14.32-3.43,17.7-10.15,3.24-6.45,2.95-14.75.34-21.34-6.57-16.55-22.63-28.7-35.61-40.03-14.3-12.48-28.64-25.35-41.44-39.37Z" style="fill:#fdfdfd;"/><path d="m605.43,49.78v78.56c2.52-3.16,3.8-7.46,5.46-11.14,1.91-4.24,3.89-8.44,5.85-12.66,3.58-7.72,7.13-15.46,11.17-22.95,6.41-11.89,16.94-32.18,32.4-33.5,9.23-.79,12.41,6.06,13.41,13.99,1.19,9.45.44,19.34.48,28.86.04,9.73.09,19.47.17,29.2.07,8.84-1.36,19.56,4.45,27.02h-18.89c4.74-10.31,3.77-21.04,3.86-32.18.09-10.79.15-21.57.2-32.36.02-5.39.14-10.79.06-16.18-.06-4.01-.53-9.07-4.91-10.64-7.88-2.83-15.16,7.37-18.92,12.74-12.04,17.22-19.48,37.2-28.33,56.13-2.23,4.78-4.52,9.54-6.82,14.29-1.04,2.16-3.77,10.36-7.41,9.52-3.5-.81-2.38-7.84-2.38-10.09,0-5.82,0-11.63.01-17.45.01-12.28.02-24.56-.01-36.84-.03-11.87.41-23.18-4.06-34.32h14.21Z" style="fill:#fdfdfd;"/><path d="m457.42,232.56c0,6.07-.28,12.16.19,18.22.39,5.06,2.12,8.68,4,13.25-20.52,0-41.17-.65-61.67.17-7.22.29-19.48,1.52-23.19-6.3-3.71-7.83-.85-18.25,3.39-25.26,9.52-15.77,28.19-25.23,45.03-30.98,4.31-1.47,8.74-2.52,13.17-3.56,1.91-.45,4.76-.56,6.53-1.3,2.19-.92,1.74-1.71,1.37-4.11-1.22-8.07-4.49-16.36-11.86-20.69-8.81-5.18-21.06-3.79-30.17-.34-9.83,3.73-16.67,9.84-24.74,16.21-.26-3.3-1.43-9.79.88-12.58,2.6-3.14,9.76-4.73,13.42-6.09,11.79-4.38,24.92-5.65,37.25-2.74,11.22,2.65,20.44,10.29,24.12,21.38,4.53,13.62,2.23,29.66,2.31,43.77-.02.32-.03.64-.05.95Zm-10.28-31.92c-13.11,1.47-25.91,6.25-37.22,12.96-9.74,5.77-20.38,14.16-23.07,25.78-1.14,4.92-.81,11.29,2.65,15.29,3.67,4.25,9.2,3.7,14.29,3.74,14.25.1,29.15,1.22,43.35-.08v-57.68Z" style="fill:#fdfdfd;"/><path d="m466.83,70.51c0-2.7-1.11-9.38.42-11.71,1.45-2.2,6.24-3.33,8.56-4.31,6.73-2.85,13.63-5.13,20.91-5.94,13.8-1.53,29.44.09,39.31,10.98,10.26,11.33,8.5,27.21,8.61,41.33.07,8.21.15,16.42.22,24.63.03,3.91.05,7.88.62,11.76.56,3.84,2.09,6.41,3.79,9.82-20.35.9-40.85-.08-61.23.16-7.4.09-20.55,1.87-24.05-6.69-3.32-8.13-.52-17.8,3.79-24.96,9.24-15.34,27.02-24.5,43.42-30.03,4.28-1.44,8.6-2.88,12.97-4.02,2.21-.58,4.43-.84,6.67-1.22,2.79-.48,3.32-.53,3.06-3.43-.7-7.83-4.1-16.25-10.72-20.85-8.35-5.81-20.85-5.07-30.01-1.88-9.86,3.43-18.49,9.42-25.98,16.61-.13-.08-.26-.17-.39-.25Zm67.77,13.25c-13.44,1.59-26.14,6.63-37.83,13.35-9.66,5.56-20.07,14.36-22.53,25.79-1.06,4.92-.67,11.18,2.92,15.07,3.83,4.15,9.42,3.62,14.58,3.64,14.2.06,28.68.8,42.86-.06v-57.78Z" style="fill:#fdfdfd;"/><path d="m575.61,214.83c1.84,18.18,6.12,36.35,25.21,43.27,9.46,3.43,21.3,2.62,30.64-.82,4.06-1.49,8.05-3.45,11.36-6.27,1.92-1.63,3.3-3.5,4.8-5.49,1.77-2.35,2.26-2.14,5.15-1.1-11.35,20.45-41.45,26.76-61.47,16.35-21.68-11.27-31.34-38.88-24.7-61.86,6.69-23.16,27.38-35.68,51.09-33.74,21.16,1.73,37.36,17.39,37.36,39,0,2.61.36,7.73-1.72,9.8-1.87,1.86-6.53.87-8.85.87-7.59,0-15.17,0-22.76,0-15.37,0-30.74,0-46.11,0Zm34.62-3.86c9.03,0,18.06,0,27.09,0,4.67,0,7.55,1.33,7.83-4.03.21-4.03,0-8.33-.38-12.34-1.67-17.18-15.54-26.12-31.87-25.82-16.05.3-29.1,11.73-33.91,26.77-1.18,3.69-2,7.56-2.74,11.36-.96,4.92,1.06,4.05,5.56,4.05,9.48,0,18.95,0,28.43,0Z" style="fill:#fdfdfd;"/><path d="m386.08,126.29c8.26-20.57,14.73-42.8,27.8-60.99,5.75-8,13.86-15.97,24.11-17.11,3.02-.34,11.34-.88,13.79,1.39,2.14,1.98.76,9.38.76,11.99-13.71-3.45-25.38-.51-34.81,10.28-9.62,11-16.03,24.9-21.57,38.28-2.97,7.18-5.61,14.48-8.47,21.71-1.28,3.23-5.39,16.72-9.62,16.71-4.83-.02-2.78-16.63-2.78-19.99,0-8.28,0-16.56,0-24.84,0-9.24,0-18.47-.03-27.71-.02-9.31-.05-17.91-4.26-26.4,3.45,0,6.9.05,10.34.01,3.88-.05,4.2-.21,4.24,3.65.09,8.02-.02,16.04-.02,24.06,0,16.18-.07,32.36.01,48.54-.01.35-.02.7-.03,1.05.17-.21.35-.42.52-.64Z" style="fill:#fdfdfd;"/><path d="m554.44,178.05c-7.11-.91-13.79-2.46-20.71.33-6.47,2.6-11.94,7.56-16.29,12.91-9.11,11.2-14.84,24.94-20.27,38.18-2.88,7.03-5.71,14.09-8.53,21.14-1.04,2.6-5.79,18.05-10.24,13.96-2.08-1.91-1.16-6.5-1.16-8.94,0-4.22,0-8.44.01-12.66,0-8.12.02-16.24.02-24.35,0-9.42-.02-18.83-.08-28.25-.05-8.26-.77-16.17-4.14-23.71,3.64-.43,7.9-.4,11.56-.17,3.77.24,2.86,2.17,2.85,5.69-.02,7.94-.02,15.88-.03,23.82,0,15.81,0,31.61,0,47.42l.37.14c8.1-19.81,14.23-41,26.29-58.9,5.2-7.72,11.74-15.27,20.81-18.38,5.27-1.81,10.49-1.36,15.89-.54,2.8.43,3.37.4,3.63,3.28.27,2.97.02,6.07.02,9.06Z" style="fill:#fdfdfd;"/><path d="m362.81,245.59c-8.61,15.55-26.42,20.13-43.11,19.9-15.42-.21-29.58-10.86-37.29-23.7-8.93-14.87-10.52-33.17-4.66-49.39,2.43-6.72,6.09-12.98,11.04-18.16,5.91-6.19,11.51-7.94,19.92-7.84,11.03.12,22.07.11,33.1.07,4.71-.02,11.02-1.17,15.58-.06,3.74.92,2.1,7.56,2.1,10.89-6.67-1.98-12.82-4.44-19.82-5.24-8.15-.93-16.37-.9-24.56-.82-3.78.04-7.56.1-11.34.08-4.34-.02-6.22.48-9.1,3.95-4.55,5.48-7.11,12.73-8.57,19.6-5.81,27.52,8.2,61.02,39.3,64.16,7.93.8,16.35-.13,23.44-3.95,3.07-1.65,5.79-3.84,7.99-6.55,2.16-2.67,2.51-5.26,5.96-2.95Z" style="fill:#fdfdfd;"/><path d="m560.71,49.61h14.72c.86,16.6.09,33.43.09,50.06,0,15.87-2.41,32.65,4.13,47.47h-18.88c4.78-6.4,3.99-14.55,4.14-22.09.18-8.69.33-17.39.33-26.08,0-8.79.04-17.58-.02-26.37-.06-8,.02-16.08-4.5-22.99Z" style="fill:#fdfdfd;"/><path d="m245.49,11.38V.41c17.27-.88,34.77-.08,52.06-.08,8.72,0,17.43,0,26.15-.01,7.26,0,15.02.29,21.64,3.66,14.22,7.24,10.02,27.05,3.74,38.39-3.29,5.95-7.84,11.27-12.85,15.84-1.63,1.49-14.62,12.16-15.72,9.51,10.19-9.1,18.53-17.97,21.76-31.69,2.76-11.71,3.19-27.33-10.8-31.11-6.86-1.85-14.8-.87-21.84-.89-7.52-.02-15.05-.05-22.57.1-14.59.29-27.8,2.47-41.58,7.25Z" style="fill:#fdfdfd;"/><path d="m457.42,232.56c.02-.32.03-.64.05-.95-.02.32-.03.64-.05.95Z" style="fill:#d19f8a;"/><path d="m386.08,126.29l-.52.64c.01-.35.02-.7.03-1.05.16.14.32.28.48.42Z" style="fill:#d19f8a;"/></g></svg>