<?xml version="1.0" encoding="UTF-8"?><svg id="Capa_2" xmlns="http://www.w3.org/2000/svg" xmlns:xlink="http://www.w3.org/1999/xlink" viewBox="0 0 636.07 798.08"><defs><linearGradient id="Degradado_sin_nombre_3" x1="205.78" y1="103.76" x2="416.24" y2="103.76" gradientUnits="userSpaceOnUse"><stop offset="0" stop-color="#d7afa0"/><stop offset="1" stop-color="#ce937a"/></linearGradient></defs><g id="Iconos_campos_de_formulario"><path d="m16.46,496.13c6.65-9.5,6.2-17.5,6.2-55.57.06-20.4.11-40.81.17-61.21.06-20.87.12-41.73.18-62.6,0-2.06-1.25-10.11.97-11,2.83-1.13,5.18,3.73,6.46,5.46,5.91,8.05,11.79,16.1,18.39,23.61,25.47,29.01,56.97,52.88,86.1,78.03,13.82,11.94,28.2,23.56,31.44,42.64,2.61,15.39-5.51,30.96-20.17,36.93-8.44,3.44-18.47,3.5-27.44,3.62-11.94.16-23.89.08-35.83.09-22.16.02-44.32-.02-66.48-.02Zm21.39-164.65v159.17c14.06.83,70.74.94,84.7,0,10.31-.7,20.56-4.92,25.41-14.56,4.65-9.26,4.24-21.17.49-30.63-9.43-23.75-32.48-41.2-51.11-57.46-20.53-17.92-41.11-36.39-59.48-56.51Z" style="fill:#fdfdfd;"/><path d="m520.04,356.19v112.76c3.62-4.53,5.46-10.71,7.83-15.98,2.74-6.08,5.59-12.12,8.39-18.18,5.14-11.08,10.23-22.19,16.03-32.95,9.2-17.06,24.31-46.19,46.51-48.09,13.25-1.14,17.81,8.69,19.24,20.09,1.7,13.57.63,27.77.68,41.43.05,13.97.13,27.94.25,41.92.11,12.69-1.95,28.08,6.39,38.78h-27.12c6.81-14.8,5.42-30.2,5.54-46.19.12-15.48.21-30.97.28-46.45.03-7.74.21-15.49.09-23.22-.09-5.76-.76-13.02-7.04-15.27-11.32-4.06-21.77,10.58-27.16,18.29-17.28,24.72-27.96,53.4-40.66,80.56-3.21,6.86-6.48,13.69-9.78,20.51-1.5,3.1-5.41,14.88-10.64,13.67-5.02-1.16-3.42-11.25-3.41-14.48,0-8.35.01-16.7.02-25.05.02-17.63.03-35.25-.02-52.88-.04-17.05.58-33.28-5.83-49.26h20.4Z" style="fill:#fdfdfd;"/><path d="m307.58,618.56c0,8.72-.4,17.45.28,26.16.57,7.26,3.04,12.47,5.73,19.02-29.46,0-59.09-.93-88.52.24-10.36.41-27.96,2.19-33.28-9.04-5.33-11.24-1.22-26.2,4.86-36.26,13.66-22.63,40.47-36.21,64.64-44.48,6.19-2.12,12.55-3.61,18.91-5.11,2.74-.64,6.83-.81,9.37-1.87,3.14-1.32,2.49-2.45,1.97-5.89-1.75-11.58-6.45-23.48-17.02-29.69-12.65-7.43-30.23-5.44-43.3-.49-14.11,5.35-23.92,14.12-35.51,23.27-.37-4.74-2.05-14.05,1.26-18.06,3.73-4.51,14.01-6.79,19.27-8.74,16.92-6.28,35.77-8.11,53.47-3.94,16.11,3.8,29.33,14.77,34.62,30.69,6.5,19.55,3.2,42.57,3.32,62.82-.02.46-.05.91-.07,1.37Zm-14.75-45.81c-18.81,2.11-37.2,8.97-53.43,18.6-13.97,8.29-29.25,20.33-33.11,37.01-1.64,7.06-1.16,16.2,3.8,21.94,5.27,6.1,13.21,5.31,20.52,5.37,20.46.15,41.85,1.75,62.22-.12v-82.8Z" style="fill:#fdfdfd;"/><path d="m321.09,385.95c0-3.87-1.59-13.47.61-16.81,2.07-3.16,8.96-4.77,12.29-6.18,9.66-4.09,19.56-7.37,30.02-8.52,19.81-2.19,42.25.12,56.42,15.76,14.73,16.26,12.2,39.06,12.36,59.33.09,11.79.22,23.57.32,35.36.05,5.61.08,11.31.89,16.88.81,5.52,3,9.2,5.44,14.1-29.21,1.29-58.64-.11-87.89.23-10.62.12-29.5,2.68-34.52-9.6-4.76-11.67-.75-25.55,5.44-35.83,13.26-22.02,38.79-35.17,62.32-43.11,6.14-2.07,12.35-4.14,18.62-5.77,3.17-.83,6.36-1.2,9.58-1.76,4-.68,4.77-.75,4.4-4.92-1.01-11.23-5.88-23.32-15.38-29.93-11.99-8.35-29.93-7.27-43.08-2.7-14.15,4.93-26.54,13.52-37.29,23.85-.19-.12-.38-.24-.57-.36Zm97.28,19.01c-19.29,2.28-37.52,9.51-54.3,19.17-13.87,7.98-28.8,20.61-32.34,37.01-1.52,7.07-.96,16.05,4.2,21.63,5.5,5.95,13.52,5.19,20.93,5.23,20.39.09,41.17,1.15,61.52-.09v-82.95Z" style="fill:#fdfdfd;"/><path d="m477.23,593.11c2.64,26.09,8.79,52.18,36.19,62.11,13.58,4.92,30.58,3.76,43.99-1.18,5.83-2.15,11.56-4.95,16.31-9,2.75-2.35,4.74-5.02,6.89-7.88,2.53-3.38,3.24-3.07,7.4-1.58-16.29,29.36-59.49,38.41-88.24,23.47-31.12-16.18-44.99-55.81-35.46-88.79,9.61-33.25,39.31-51.22,73.34-48.43,30.38,2.49,53.63,24.97,53.63,55.98,0,3.75.52,11.1-2.47,14.06-2.69,2.66-9.37,1.25-12.71,1.25-10.89,0-21.78-.01-32.66-.01-22.06,0-44.12,0-66.19,0Zm49.69-5.54c12.96,0,25.93,0,38.89,0,6.7,0,10.84,1.91,11.24-5.78.3-5.79.01-11.95-.55-17.71-2.4-24.65-22.31-37.49-45.75-37.06-23.04.42-41.77,16.84-48.68,38.42-1.7,5.3-2.87,10.85-3.94,16.31-1.38,7.07,1.52,5.82,7.98,5.82,13.6,0,27.21,0,40.81,0Z" style="fill:#fdfdfd;"/><path d="m205.18,466.02c11.86-29.52,21.14-61.43,39.9-87.54,8.25-11.48,19.89-22.92,34.61-24.56,4.33-.48,16.28-1.26,19.8,2,3.07,2.85,1.09,13.46,1.09,17.21-19.68-4.96-36.43-.73-49.97,14.75-13.8,15.79-23.01,35.74-30.96,54.95-4.27,10.31-8.05,20.79-12.15,31.16-1.83,4.64-7.73,24.01-13.81,23.98-6.93-.03-3.99-23.87-3.99-28.69,0-11.89,0-23.77,0-35.66,0-13.26-.01-26.51-.04-39.77-.02-13.36-.07-25.71-6.11-37.89,4.95,0,9.9.08,14.85.02,5.57-.07,6.03-.31,6.09,5.23.13,11.51-.03,23.02-.03,34.53-.01,23.22-.1,46.45.02,69.67-.02.5-.03,1.01-.05,1.51.25-.3.5-.61.74-.91Z" style="fill:#fdfdfd;"/><path d="m446.85,540.31c-10.21-1.31-19.79-3.52-29.73.47-9.29,3.73-17.13,10.85-23.38,18.53-13.08,16.07-21.3,35.8-29.09,54.8-4.14,10.09-8.19,20.22-12.25,30.35-1.5,3.74-8.31,25.9-14.71,20.04-2.99-2.74-1.67-9.33-1.67-12.84,0-6.06,0-12.12.02-18.18.01-11.65.03-23.31.03-34.96,0-13.52-.03-27.03-.12-40.55-.08-11.85-1.11-23.21-5.94-34.04,5.23-.61,11.33-.57,16.6-.24,5.41.34,4.1,3.11,4.09,8.17-.02,11.4-.04,22.8-.04,34.19-.01,22.69,0,45.38,0,68.06l.53.2c11.63-28.43,20.42-58.85,37.74-84.55,7.47-11.08,16.85-21.92,29.87-26.38,7.57-2.59,15.06-1.95,22.82-.77,4.02.61,4.84.58,5.21,4.7.39,4.27.03,8.71.03,13Z" style="fill:#fdfdfd;"/><path d="m171.77,637.25c-12.37,22.33-37.92,28.89-61.88,28.57-22.14-.3-42.45-15.59-53.52-34.03-12.81-21.35-15.09-47.62-6.68-70.89,3.49-9.65,8.75-18.63,15.85-26.07,8.48-8.89,16.52-11.39,28.59-11.26,15.84.17,31.68.15,47.52.1,6.77-.02,15.82-1.68,22.36-.08,5.37,1.32,3.02,10.85,3.02,15.64-9.58-2.85-18.4-6.37-28.45-7.52-11.7-1.34-23.5-1.29-35.25-1.18-5.43.05-10.85.14-16.28.11-6.24-.03-8.92.69-13.06,5.67-6.53,7.86-10.21,18.27-12.3,28.14-8.34,39.51,11.78,87.58,56.42,92.1,11.38,1.15,23.46-.19,33.65-5.67,4.41-2.37,8.31-5.51,11.47-9.41,3.11-3.84,3.6-7.56,8.56-4.23Z" style="fill:#fdfdfd;"/><path d="m455.85,355.94h21.13c1.23,23.83.13,47.99.12,71.85-.01,22.78-3.45,46.87,5.93,68.14h-27.11c6.87-9.19,5.72-20.88,5.95-31.71.26-12.48.47-24.96.48-37.44,0-12.61.05-25.24-.03-37.85-.08-11.48.03-23.08-6.46-33Z" style="fill:#fdfdfd;"/><path d="m3.37,301.07v-15.75c24.78-1.26,49.91-.12,74.72-.12,12.51,0,25.02,0,37.53-.02,10.42,0,21.57.42,31.06,5.26,20.41,10.4,14.38,38.83,5.36,55.11-4.73,8.54-11.25,16.17-18.44,22.74-2.34,2.14-20.98,17.46-22.56,13.66,14.63-13.06,26.59-25.8,31.24-45.49,3.97-16.81,4.59-39.23-15.5-44.65-9.85-2.66-21.24-1.25-31.35-1.28-10.8-.04-21.6-.07-32.4.15-20.94.41-39.91,3.54-59.68,10.41Z" style="fill:#fdfdfd;"/><path d="m479.11,323.56c.15,17.02-26.55,14.5-24.4-1.37,2.01-14.79,25.67-13.97,24.4,1.37Z" style="fill:#fdfdfd;"/><path d="m526.47,736.13c7.83,0,23.75-2.51,17.27,10.13,2.29,3.65,5.67,8.14.82,11.43-4.55,3.08-12.94,1.41-18.08,1.41v-22.97Zm3.19,19.54c3.02,0,13.4,1.58,13.62-3.4.2-4.42-10.65-3.15-13.62-3.33v6.73Zm.04-10.53c2.77,0,12.21,1.82,12.48-2.58.29-4.75-9.8-2.95-12.48-2.95v5.53Z" style="fill:#fdfdfd;"/><path d="m190.95,759.38v-23.71c9.31.86,24.03-.3,22.71,13.15-1.17,11.92-13.77,10.06-22.71,10.56Zm3.68-19.75v16.36c6.81-.68,15.94.12,15.01-9.29-.82-8.28-8.71-7.07-15.01-7.07Z" style="fill:#fdfdfd;"/><path d="m262.68,736.24c5.76-1.62,15.77,13.67,19.22,17.48v-17.48h3.58v22.68c-3.99,1.23-6.62-3.26-8.89-5.76-3.55-3.89-7.17-7.71-10.74-11.57v17.4h-3.17v-22.75Z" style="fill:#fdfdfd;"/><path d="m76.86,736.17h3.35v22.73c-4.57,1.39-7.94-4.71-10.56-7.56-2.93-3.18-6.5-6.09-8.19-10.1-.36.31-.72.61-1.08.92v16.88h-3.05v-22.76c5.72-1.86,16.11,13.88,19.53,17.67v-17.79Z" style="fill:#fdfdfd;"/><path d="m495.19,759.37v-23.47c9.01.44,23.14-1.36,22.51,11.68-.63,13.21-12.63,11.26-22.51,11.79Zm3.63-19.73v15.91c6.51,0,15.8.93,15.36-8.37-.4-8.66-9.07-7.54-15.36-7.54Z" style="fill:#fdfdfd;"/><path d="m290.37,797.63c-15.66,1.61-17.39-22.22-1.55-23.26,17.22-1.13,19.22,23.26,1.55,23.26Zm0-3.5c12.02.02,11.87-15.75.16-16.36-11.7-.6-12.57,16.33-.16,16.36Z" style="fill:#fdfdfd;"/><path d="m393.82,759.13c-13.98.03-17.67-19.67-3.44-23,18.52-4.33,22.87,23,3.44,23Zm-.27-3.5c12.55,0,12.51-16.59.29-16.45-11.33.13-12.09,16.45-.29,16.45Z" style="fill:#fdfdfd;"/><path d="m118.6,750.74v8.24h-3.35v-22.77c5.29,0,14.84-2.18,18.25,3.01,2.94,4.47.09,8.51-3.74,10.95,1.97,2.9,3.91,5.74,5.93,8.7-5.36,1.37-5.51-2.96-8.57-6.01-2.67-2.66-4.79-2.4-8.53-2.12Zm.11-3.66c3.62,0,11.3,1.74,11.83-3.44.61-5.9-8.32-4.04-11.83-4.04v7.48Z" style="fill:#fdfdfd;"/><path d="m367.88,750.19c2,2.93,3.91,5.71,5.97,8.72-5.3.96-4.99-2.01-7.77-5.37-2.55-3.08-5.56-3.55-9.47-2.68v8.17h-3.26v-22.68c4.81,0,13.8-1.91,17.51,1.81,4.13,4.14,1.07,9.51-2.98,12.03Zm-11.21-3.08c3.27,0,12.3,1.67,12.39-3.75.09-5.5-9.12-3.72-12.39-3.72v7.47Z" style="fill:#fdfdfd;"/><path d="m383.8,797.35c-4.64,1.48-5.23-1.98-7.37-4.78-2.53-3.3-5.56-4.31-9.72-3.14v8.04h-3.39v-22.74c5,0,14.09-2.05,17.83,2.21,3.76,4.28.74,9.36-3.3,11.7,2,2.94,3.94,5.77,5.95,8.71Zm-17.12-11.75c3.27,0,12.34,1.67,12.38-3.77.05-5.49-9.1-3.66-12.38-3.66v7.43Z" style="fill:#fdfdfd;"/><path d="m156.13,759.13c-15.48,2.13-17.58-21.62-1.75-23.36,17.31-1.9,19.36,23.36,1.75,23.36Zm-.55-3.5c10.96,0,13.27-14.53,1.93-16.22-12.91-1.92-14.11,17.6-1.93,16.22Z" style="fill:#fdfdfd;"/><path d="m217.6,778.36c-.78.82-1.47,1.54-2.35,2.47-2.11-2.57-10.68-5.88-12.14-.84-1.46,5.04,10.74,4.38,13.41,6.89,3.28,3.07,1.36,7.63-2.03,9.65-5.24,3.12-12.76,1.29-16.6-3.17.67-.85,1.37-1.73,2.16-2.73,2.91,2.54,10.21,7.05,13.37,2.15,3.28-5.09-10.05-5.05-12.62-7.68-3.74-3.82-.93-8.9,3.51-10.42,4.3-1.47,10.4.09,13.3,3.68Z" style="fill:#fdfdfd;"/><path d="m468.34,736.14h17.14v3.36h-13.54c-4.09,8.59,7.54,6.12,11.95,6.12v3.34h-12.12v6.62h13.75v3.39h-17.17v-22.82Z" style="fill:#fdfdfd;"/><path d="m295.75,736.16h17.27v3.28h-13.72v6.09h11.7v3.55h-11.77v6.5h13.72v3.42h-17.21v-22.84Z" style="fill:#fdfdfd;"/><path d="m225.67,749.09v6.5h13.79v3.42h-17.22v-22.78h17.19v3.22h-13.64v6.09h11.71v3.55h-11.84Z" style="fill:#fdfdfd;"/><path d="m445.21,745.66h11.77c.52,5.75-7.62,3.47-11.78,3.47v6.53h13.74v3.31h-17.25v-22.8h17.25v3.26h-13.72v6.23Z" style="fill:#fdfdfd;"/><path d="m48.01,755.64v3.32h-17.4v-22.79h17.31v3.23h-13.7v6.15h11.72c.64,5.99-7.4,3.58-11.73,3.58v6.51h13.8Z" style="fill:#fdfdfd;"/><path d="m336.61,797.46v-22.78h17.31v3.22h-13.7v6.15h11.71c.65,5.99-7.39,3.58-11.73,3.58v6.51h13.72v3.32h-17.31Z" style="fill:#fdfdfd;"/><path d="m613.66,736.19h3.34v11.97c5.54-4.67,11.33-12.5,19.07-11.85-3.7,3.12-7.21,6.08-10.81,9.11,3.6,4.51,7.11,8.91,10.74,13.47-6.16,1.39-10.01-6.77-13.32-10.94-4.78,2.25-6.83,5.79-5.36,11.07h-3.67v-22.82Z" style="fill:#fdfdfd;"/><path d="m577.26,758.84c-5.09,1.74-4.58-2.86-6.43-5.23-3.61,0-9.37-1.25-12.28.97-2.45,1.87-1.35,5.85-5.85,4.29,1.78-3.94,7.71-23.09,12.47-22.67,5.02.45,10.16,18.31,12.1,22.64Zm-16.71-8.9h8.76c-1.52-3.42-2.94-6.6-4.45-10-1.51,3.51-2.89,6.72-4.3,10Z" style="fill:#fdfdfd;"/><path d="m390.2,797.35c2.18-4.82,4.31-9.66,6.53-14.46,2.28-4.92,2.69-7.03,7.63-8.74,3.61,8.05,6.99,15.59,10.4,23.2-3.36,1.07-3.39-.62-5.07-2.55-2.63-3-2.84-2.61-7.34-2.59-3.33.02-4.67-.57-6.94,1.77-1.93,1.99-1.06,4.93-5.21,3.37Zm12.15-18.97c-1.54,3.62-2.91,6.83-4.33,10.15h8.79c-1.5-3.4-2.91-6.62-4.47-10.15Z" style="fill:#fdfdfd;"/><path d="m495.3,797.38c-3.31,1.15-3.4-.74-5.02-2.65-2.4-2.85-2.6-2.54-6.73-2.58-2.44-.02-4.88-.7-6.92,1.05-2.87,2.46-1.47,3.29-5.39,4.81-.13-.22-.27-.44-.4-.66,2.27-5.04,4.52-10.09,6.8-15.13,1.08-2.38,2.2-7.7,5.47-7.7,4.79,0,10.59,18.82,12.18,22.86Zm-12.33-18.76c-1.59,3.62-2.95,6.73-4.36,9.93h8.88c-1.51-3.33-2.93-6.44-4.52-9.93Z" style="fill:#fdfdfd;"/><path d="m175.12,789.13v8.35h-3.12v-22.8c6.15,0,18.86-2.55,19.06,6.89.18,8.32-10.22,7.56-15.94,7.56Zm-.01-11c0,3.73-1.05,6.45,2.7,7.39,2.06.52,7.66.33,8.89-1.78,4.04-6.9-8.63-5.62-11.59-5.62Z" style="fill:#fdfdfd;"/><path d="m425.58,789.13v8.37h-3.34v-22.79c6.34,0,20.17-2.58,18.81,7.85-.99,7.62-9.75,6.57-15.47,6.57Zm.12-3.6c3.41,0,10.49,1.54,11.67-2.94,1.62-6.16-8.4-4.45-11.67-4.45v7.39Z" style="fill:#fdfdfd;"/><path d="m322,736.22h3.6c0,6.59-2.43,21.37,8.76,19.29,7.88-1.47,5.7-13.31,6.03-19.26h3.41c-.44,9.48.93,26.25-13.93,22.67-10.23-2.47-7.87-14.78-7.87-22.7Z" style="fill:#fdfdfd;"/><path d="m22.24,739.76c-1.78,4.19-6.21-.1-9.37-.26-3.66-.18-7.18,1.64-8.62,5.12-4.01,9.76,9.88,14.35,16.08,8.24.64,1.04,1.18,1.91,1.84,3-8.31,7.07-24.03,2.5-21.99-10,1.65-10.09,15.28-12.98,22.06-6.1Z" style="fill:#fdfdfd;"/><path d="m605.2,739.8c-1.68,4.18-6.15-.14-9.28-.29-3.82-.19-7.64,1.79-8.9,5.59-3.21,9.69,10.23,13.67,16.31,7.79.66,1.07,1.21,1.97,1.76,2.85-6.27,6.89-19.66,3.69-21.71-5.34-2.73-12.09,13.79-19.65,21.81-10.6Z" style="fill:#fdfdfd;"/><path d="m268.99,791.39c.7,1.17,1.2,2.01,1.7,2.83-6.43,6.21-18.76,4.4-21.63-4.48-4.2-12.99,13.29-19.83,21.91-11.4-.66.85-1.35,1.73-2.11,2.71-5.35-4.37-16.66-4-16.76,4.95-.1,8.8,11.56,10.19,16.89,5.39Z" style="fill:#fdfdfd;"/><path d="m415.53,736.17h17.3v3.24h-14.06v6.64h12.59v3.4h-12.7v9.61h-3.13v-22.89Z" style="fill:#fdfdfd;"/><path d="m463.54,774.69v2.62c-2.36,1.56-3.51-.49-5.11,1.97-1.69,2.59-.03,11.63-.03,14.76h5.03v3.47h-13.7v-3.28h4.84v-16.02h-4.86v-3.51h13.83Z" style="fill:#fdfdfd;"/><path d="m235.21,794.16h4.78v3.37h-13.78v-3.36h5.32v-15.81c-3.83-.48-4.94.15-5.57-3.65h14v2.73c-7.72.84-4.75,10.67-4.75,16.73Z" style="fill:#fdfdfd;"/><path d="m151.15,774.86c-2.71,3.7-5.96,7.37-8.32,11.28-2.22,3.68-1.72,7.19-1.72,11.41h-3.5c0-4.43.33-7.99-2.06-11.85-2.38-3.84-5.66-7.33-8.43-10.9,6.47-.74,8.97,5.64,12.44,10.29,2.81-3.92,5.81-11.63,11.61-10.22Z" style="fill:#fdfdfd;"/><path d="m99.43,759.03h-3.61v-19.4h-8.14v-3.38h19.79c.04.74.08,1.62.15,2.87-1.12,0-2.16,0-3.2,0-5.76.02-4.95-.55-4.98,5.11-.02,4.9,0,9.8,0,14.79Z" style="fill:#fdfdfd;"/><path d="m328.51,774.7v2.93c-5.25,0-7.64-1.33-7.75,4.41-.1,5.14-.02,10.29-.02,15.43h-3.59v-19.32h-7.93v-3.45h19.29Z" style="fill:#fdfdfd;"/><path d="m307.58,618.56c.02-.46.05-.91.07-1.37-.02.46-.05.91-.07,1.37Z" style="fill:#d19f8a;"/><path d="m205.18,466.02l-.74.91c.02-.5.03-1.01.05-1.51.23.2.46.4.7.6Z" style="fill:#d19f8a;"/><path d="m342.54,198.83s.03,0,.05.01c-.86-.21-1.73-.42-2.59-.63.85.21,1.69.41,2.54.62Z" style="fill:none;"/><path d="m355.42,201.81s.01,0,.02,0c-.81-.18-1.62-.36-2.43-.54.8.18,1.6.36,2.41.54Z" style="fill:none;"/><path d="m355.42,201.81s.01,0,.02,0c-.81-.18-1.62-.36-2.43-.54.8.18,1.6.36,2.41.54Z" style="fill:none;"/><path d="m342.54,198.83s.03,0,.05.01c-.86-.21-1.73-.42-2.59-.63.85.21,1.69.41,2.54.62Z" style="fill:none;"/><path d="m294.3,184.04c.32.13.64.26.96.39.85.33,1.71.64,2.56.96-.85-.32-1.71-.63-2.55-.96-.32-.12-.64-.26-.96-.38Z" style="fill:none;"/><path d="m394.87,37.57C374,9,335.48-3.65,301.21.91c-40.52,5.39-74.49,31.12-89.35,69.06-3.41,8.7-6.35,19.23-6.06,28.69.25,8.05,2.54,16,4.23,23.82.75,3.51,1.27,6.87,1.4,10.17.31.39.65.81,1.02,1.25,23.1,17.93,48.43,35.82,75.53,47.53,3.76,1.56,7.48,3.05,11.12,4.43.22.08.43.16.65.24,1.05.39,2.11.76,3.16,1.13.66.23,1.31.47,1.97.7,1.02.35,2.03.7,3.05,1.04.69.23,1.38.47,2.08.69,1.01.33,2.01.66,3.02.98.7.22,1.39.44,2.09.66,1.02.32,2.03.63,3.05.94.68.2,1.35.41,2.03.61,1.05.31,2.1.62,3.16.92.61.18,1.22.35,1.83.52,1.12.32,2.25.63,3.37.94.47.13.95.25,1.42.38,1.27.34,2.54.68,3.81,1.02.07.02.15.04.22.06,1.91.5,3.83.98,5.75,1.46.08.02.17.04.25.06.86.21,1.73.42,2.59.63.95.23,1.91.47,2.86.69,1.21.29,2.43.57,3.64.85.67.15,1.34.31,2.01.46.64.14,1.27.28,1.91.43.81.18,1.62.36,2.43.54.41.09.81.18,1.22.27,0,0,0,0,0,0,.25.06.5.11.75.16,1.43.31,2.87.63,4.3.93.11.02.23.05.34.07,2.53.54,5.06,1.06,7.59,1.59.61.13,1.21.25,1.82.38,2.46.5,4.92,1,7.38,1.5,2.36.33,4.55.59,6.56.81.06-.96.19-1.89.4-2.77,2.28-9.74,9.82-18.84,13.85-27.98,4.33-9.83,8.08-20.12,10.99-30.44,10.29-36.58,7.15-77.37-15.77-108.76Z" style="fill:url(#Degradado_sin_nombre_3);"/><path d="m378.84,206.71c-2.46-.49-4.92-.99-7.38-1.5-.61-.12-1.22-.25-1.82-.38-2.53-.52-5.06-1.05-7.59-1.59-.11-.02-.23-.05-.34-.07-1.44-.31-2.87-.62-4.3-.93-.25-.05-.5-.11-.75-.16,0,0,0,0,0,0-.41-.09-.81-.18-1.22-.27,0,0-.01,0-.02,0-.8-.18-1.6-.36-2.41-.54-.64-.14-1.27-.28-1.91-.43-.67-.15-1.34-.31-2.01-.46-1.21-.28-2.43-.56-3.64-.85-.96-.23-1.91-.46-2.86-.69-.02,0-.03,0-.05-.01-.85-.21-1.7-.41-2.54-.62-.08-.02-.17-.04-.25-.06-1.92-.48-3.83-.96-5.75-1.46-.07-.02-.15-.04-.22-.06-1.27-.33-2.54-.67-3.81-1.02-.47-.13-.95-.25-1.42-.38-1.12-.31-2.25-.62-3.37-.94-.61-.17-1.22-.34-1.83-.52-1.05-.3-2.11-.61-3.16-.92-.68-.2-1.35-.4-2.03-.61-1.02-.31-2.03-.62-3.05-.94-.7-.22-1.39-.44-2.09-.66-1.01-.32-2.02-.65-3.02-.98-.69-.23-1.38-.46-2.08-.69-1.02-.34-2.03-.69-3.05-1.04-.66-.23-1.31-.46-1.97-.7-1.05-.37-2.11-.75-3.16-1.13-.22-.08-.43-.16-.65-.24-3.65-1.39-7.36-2.87-11.12-4.43-27.11-11.71-52.44-29.6-75.53-47.53-.37-.44-.71-.86-1.02-1.25.24,5.65-.65,11.12-3.42,16.87-2.12,4.42-5.13,8.47-7.67,12.65-1.77,2.92-5.14,7.46-5.19,11.46-.05,3.82,0,3.54,0,3.5,2.79,7.81,14.76,4.15,16.71,13.94.64,3.18-1.15,8.24.45,11.21,1.21,2.26,3.69,1.79,5.21,3.53-1.99,4.57-3.25,7.39,1.54,10.27,3.58,2.15,5.33,1.78,6.08,6.3,1.69,10.15-3.31,18.53,8.55,23.47,9.15,3.81,19.91.93,29.23-.78,5.94-1.09,10.97-2.67,16.59-4.67,4.48-1.59,5.61-.76,7.78,3.32,2.45,4.59,3.89,9.38,4.9,14.48,1.19,6.01,1.42,6.88,7.5,6.99,12.08.23,24.18-.01,36.26-.01,12.08-.01,24.16-.01,36.25-.02,11.08-.01,23.56,1.57,34.38-.82-5.34-9.55-9.86-18.94-13.87-29.12-2.95-7.51-7.93-18.89-7.31-27.7-2.01-.22-4.2-.48-6.56-.81Zm-83.58-22.29c-.32-.12-.64-.26-.96-.39.32.13.64.26.96.38.85.33,1.7.64,2.55.96-.85-.32-1.71-.63-2.56-.96Z" style="fill:#e9d7d0;"/><path d="m230.1,111.63c2.92,0,5.64-.79,8-2.16,6.23,5.93,14.14,13.24,20.15,18.07,9.04,7.27,21.45,12.77,27,15.03-.09.68-.15,1.36-.15,2.06,0,8.84,7.16,16,16,16,5.32,0,10.02-2.61,12.93-6.6,7.42,2.4,17.06,5.46,23.05,7.09,7.19,1.96,17.45,4.77,23.29,6.37,1.35,7.47,7.87,13.14,15.73,13.14,8.84,0,16-7.16,16-16,0-5.24-2.53-9.87-6.42-12.79,1.94-3.96,4.26-9.33,5.72-14.9,1.91-7.3,2.99-15.52,3.48-20.04,6.5-2.03,11.22-8.1,11.22-15.27,0-7.64-5.36-14.02-12.53-15.61-1.27-6.04-3.7-15.96-7.21-23.22-3.16-6.54-9.29-14.07-13.86-19.23,1.02-2.1,1.6-4.45,1.6-6.94,0-8.84-7.16-16-16-16-5.32,0-10.03,2.61-12.94,6.61-7.3-2.65-18.18-5.99-28.93-6.99-14.71-1.36-25.89,2.75-30.36,4.77-2.92-3.88-7.55-6.39-12.77-6.39-8.84,0-16,7.16-16,16,0,1.41.2,2.77.54,4.07-6.23,5.24-13.46,12.1-16.9,18.13-4.59,8.04-8.35,17.83-10.14,22.82-.17,0-.33-.03-.5-.03-8.84,0-16,7.16-16,16s7.16,16,16,16Zm71,17c-5.09,0-9.62,2.39-12.55,6.1-5.07-2.07-16.81-7.24-24.97-13.81-5.7-4.58-13.39-11.69-19.5-17.51.85-1.53,1.45-3.21,1.77-4.99,8.81.84,23.3,2.12,32.86,2.46.71.03,1.43.04,2.16.04,10.4,0,21.86-2.42,27.61-3.82,1.38,3.11,3.71,5.69,6.64,7.38l-10.72,24.5c-1.06-.22-2.16-.34-3.29-.34Zm60.08,30.26c-5.98-1.64-15.22-4.17-21.86-5.98-5.67-1.55-14.98-4.5-22.29-6.86.04-.47.07-.94.07-1.43,0-4.64-1.99-8.81-5.15-11.73l11.5-26.28c3.22-.07,6.21-1.09,8.7-2.79,10.81,13.14,23.41,33.97,32.32,49.84-1.42,1.5-2.54,3.27-3.3,5.23Zm21.99-24.1c-1.35,5.18-3.63,10.3-5.43,13.92-.54-.05-1.08-.08-1.64-.08-1.51,0-2.97.22-4.36.62-8.5-15.15-21.9-37.64-34.08-52.02.01-.02.02-.05.03-.07,13.19,1.88,26.56,3.98,36.46,5.78.56,6.94,5.54,12.61,12.13,14.22-.52,4.43-1.51,11.49-3.12,17.63Zm-32.31-83.9c2.18,1.11,4.63,1.75,7.24,1.75,3.23,0,6.22-.96,8.74-2.61,4.13,4.71,9.28,11.13,11.87,16.48,2.88,5.96,5.02,14.31,6.26,19.98-4.04,1.37-7.35,4.31-9.21,8.09-3.94-.72-8.72-1.54-14.58-2.47-8.4-1.34-16.69-2.56-22.2-3.35-.42-3.55-2-6.75-4.35-9.2,5.72-10.74,11.55-21.1,16.23-28.67Zm-61.76-16.25c0-.57-.03-1.14-.09-1.69,3.14-1.48,13.06-5.46,26.44-4.22,9.75.9,19.89,4.02,26.72,6.49-.04.47-.07.94-.07,1.41,0,3.08.89,5.95,2.4,8.39-2.66,4.21-5.91,9.69-9.92,16.87-2.57,4.6-5.06,9.21-7.25,13.32-1.35-.37-2.76-.58-4.23-.58-3.11,0-6.01.9-8.47,2.44-10.22-9.56-21.34-23.13-28.82-32.76,2.05-2.69,3.28-6.04,3.28-9.68Zm-40.97,26.42c2.57-4.51,8.33-10.12,13.89-14.89,2.88,2.77,6.78,4.48,11.08,4.48,2.1,0,4.1-.42,5.94-1.15,7.62,9.83,19.03,23.74,29.84,33.84-.84,1.63-1.41,3.42-1.64,5.32-5.35,1.33-17.94,4.11-28.24,3.74-9.85-.34-25.54-1.77-34.01-2.59-1.24-3.15-3.44-5.81-6.25-7.62,1.75-4.82,5.27-13.9,9.39-21.12Z" style="fill:#fdfdfd;"/></g></svg>