<?xml version="1.0" encoding="utf-8"?>
<!-- Generator: Adobe Illustrator 28.0.0, SVG Export Plug-In . SVG Version: 6.00 Build 0)  -->
<svg version="1.1" id="Capa_2_00000072242806508816152340000008801436976250606223_"
	 xmlns="http://www.w3.org/2000/svg" xmlns:xlink="http://www.w3.org/1999/xlink" x="0px" y="0px" viewBox="0 0 636.1 798.1"
	 style="enable-background:new 0 0 636.1 798.1;" xml:space="preserve">
<style type="text/css">
	.st0{fill:#FDFDFD;}
	.st1{fill:#D19F8A;}
	.st2{fill:none;}
	.st3{fill:url(#SVGID_1_);}
	.st4{fill:#E2CBC3;}
	.st5{fill:#FAF3EC;}
</style>
<path class="st0" d="M16.5,496.1c6.6-9.5,6.2-17.5,6.2-55.6c0.1-20.4,0.1-40.8,0.2-61.2c0.1-20.9,0.1-41.7,0.2-62.6
	c0-2.1-1.2-10.1,1-11c2.8-1.1,5.2,3.7,6.5,5.5c5.9,8,11.8,16.1,18.4,23.6c25.5,29,57,52.9,86.1,78c13.8,11.9,28.2,23.6,31.4,42.6
	c2.6,15.4-5.5,31-20.2,36.9c-8.4,3.4-18.5,3.5-27.4,3.6c-11.9,0.2-23.9,0.1-35.8,0.1C60.8,496.1,38.6,496.1,16.5,496.1L16.5,496.1z
	 M37.8,331.5v159.2c14.1,0.8,70.7,0.9,84.7,0c10.3-0.7,20.6-4.9,25.4-14.6c4.6-9.3,4.2-21.2,0.5-30.6C139,421.7,116,404.3,97.3,388
	C76.8,370.1,56.2,351.6,37.8,331.5L37.8,331.5z"/>
<path class="st0" d="M520,356.2V469c3.6-4.5,5.5-10.7,7.8-16c2.7-6.1,5.6-12.1,8.4-18.2c5.1-11.1,10.2-22.2,16-33
	c9.2-17.1,24.3-46.2,46.5-48.1c13.2-1.1,17.8,8.7,19.2,20.1c1.7,13.6,0.6,27.8,0.7,41.4c0,14,0.1,27.9,0.2,41.9
	c0.1,12.7-2,28.1,6.4,38.8h-27.1c6.8-14.8,5.4-30.2,5.5-46.2c0.1-15.5,0.2-31,0.3-46.5c0-7.7,0.2-15.5,0.1-23.2
	c-0.1-5.8-0.8-13-7-15.3c-11.3-4.1-21.8,10.6-27.2,18.3c-17.3,24.7-28,53.4-40.7,80.6c-3.2,6.9-6.5,13.7-9.8,20.5
	c-1.5,3.1-5.4,14.9-10.6,13.7c-5-1.2-3.4-11.2-3.4-14.5c0-8.4,0-16.7,0-25c0-17.6,0-35.2,0-52.9c0-17,0.6-33.3-5.8-49.3L520,356.2
	L520,356.2z"/>
<path class="st0" d="M307.6,618.6c0,8.7-0.4,17.5,0.3,26.2c0.6,7.3,3,12.5,5.7,19c-29.5,0-59.1-0.9-88.5,0.2
	c-10.4,0.4-28,2.2-33.3-9c-5.3-11.2-1.2-26.2,4.9-36.3c13.7-22.6,40.5-36.2,64.6-44.5c6.2-2.1,12.5-3.6,18.9-5.1
	c2.7-0.6,6.8-0.8,9.4-1.9c3.1-1.3,2.5-2.5,2-5.9c-1.8-11.6-6.5-23.5-17-29.7c-12.6-7.4-30.2-5.4-43.3-0.5
	c-14.1,5.3-23.9,14.1-35.5,23.3c-0.4-4.7-2.1-14,1.3-18.1c3.7-4.5,14-6.8,19.3-8.7c16.9-6.3,35.8-8.1,53.5-3.9
	c16.1,3.8,29.3,14.8,34.6,30.7c6.5,19.5,3.2,42.6,3.3,62.8C307.6,617.7,307.6,618.1,307.6,618.6L307.6,618.6z M292.8,572.8
	c-18.8,2.1-37.2,9-53.4,18.6c-14,8.3-29.2,20.3-33.1,37c-1.6,7.1-1.2,16.2,3.8,21.9c5.3,6.1,13.2,5.3,20.5,5.4
	c20.5,0.2,41.8,1.8,62.2-0.1L292.8,572.8L292.8,572.8z"/>
<path class="st0" d="M321.1,386c0-3.9-1.6-13.5,0.6-16.8c2.1-3.2,9-4.8,12.3-6.2c9.7-4.1,19.6-7.4,30-8.5
	c19.8-2.2,42.2,0.1,56.4,15.8c14.7,16.3,12.2,39.1,12.4,59.3c0.1,11.8,0.2,23.6,0.3,35.4c0,5.6,0.1,11.3,0.9,16.9
	c0.8,5.5,3,9.2,5.4,14.1c-29.2,1.3-58.6-0.1-87.9,0.2c-10.6,0.1-29.5,2.7-34.5-9.6c-4.8-11.7-0.8-25.5,5.4-35.8
	c13.3-22,38.8-35.2,62.3-43.1c6.1-2.1,12.4-4.1,18.6-5.8c3.2-0.8,6.4-1.2,9.6-1.8c4-0.7,4.8-0.8,4.4-4.9c-1-11.2-5.9-23.3-15.4-29.9
	c-12-8.4-29.9-7.3-43.1-2.7c-14.1,4.9-26.5,13.5-37.3,23.9C321.4,386.2,321.3,386.1,321.1,386L321.1,386z M418.4,405
	c-19.3,2.3-37.5,9.5-54.3,19.2c-13.9,8-28.8,20.6-32.3,37c-1.5,7.1-1,16,4.2,21.6c5.5,6,13.5,5.2,20.9,5.2
	c20.4,0.1,41.2,1.1,61.5-0.1L418.4,405L418.4,405z"/>
<path class="st0" d="M477.2,593.1c2.6,26.1,8.8,52.2,36.2,62.1c13.6,4.9,30.6,3.8,44-1.2c5.8-2.2,11.6-5,16.3-9
	c2.8-2.3,4.7-5,6.9-7.9c2.5-3.4,3.2-3.1,7.4-1.6c-16.3,29.4-59.5,38.4-88.2,23.5c-31.1-16.2-45-55.8-35.5-88.8
	c9.6-33.2,39.3-51.2,73.3-48.4c30.4,2.5,53.6,25,53.6,56c0,3.8,0.5,11.1-2.5,14.1c-2.7,2.7-9.4,1.2-12.7,1.2c-10.9,0-21.8,0-32.7,0
	C521.4,593.1,499.3,593.1,477.2,593.1L477.2,593.1z M526.9,587.6c13,0,25.9,0,38.9,0c6.7,0,10.8,1.9,11.2-5.8c0.3-5.8,0-12-0.5-17.7
	c-2.4-24.7-22.3-37.5-45.8-37.1c-23,0.4-41.8,16.8-48.7,38.4c-1.7,5.3-2.9,10.8-3.9,16.3c-1.4,7.1,1.5,5.8,8,5.8
	C499.7,587.6,513.3,587.6,526.9,587.6L526.9,587.6z"/>
<path class="st0" d="M205.2,466c11.9-29.5,21.1-61.4,39.9-87.5c8.2-11.5,19.9-22.9,34.6-24.6c4.3-0.5,16.3-1.3,19.8,2
	c3.1,2.9,1.1,13.5,1.1,17.2c-19.7-5-36.4-0.7-50,14.8c-13.8,15.8-23,35.7-31,55c-4.3,10.3-8.1,20.8-12.1,31.2
	c-1.8,4.6-7.7,24-13.8,24c-6.9,0-4-23.9-4-28.7c0-11.9,0-23.8,0-35.7c0-13.3,0-26.5,0-39.8c0-13.4-0.1-25.7-6.1-37.9
	c4.9,0,9.9,0.1,14.9,0c5.6-0.1,6-0.3,6.1,5.2c0.1,11.5,0,23,0,34.5c0,23.2-0.1,46.5,0,69.7c0,0.5,0,1-0.1,1.5
	C204.7,466.6,204.9,466.3,205.2,466L205.2,466z"/>
<path class="st0" d="M446.9,540.3c-10.2-1.3-19.8-3.5-29.7,0.5c-9.3,3.7-17.1,10.8-23.4,18.5c-13.1,16.1-21.3,35.8-29.1,54.8
	c-4.1,10.1-8.2,20.2-12.2,30.3c-1.5,3.7-8.3,25.9-14.7,20c-3-2.7-1.7-9.3-1.7-12.8c0-6.1,0-12.1,0-18.2c0-11.7,0-23.3,0-35
	c0-13.5,0-27-0.1-40.5c-0.1-11.8-1.1-23.2-5.9-34c5.2-0.6,11.3-0.6,16.6-0.2c5.4,0.3,4.1,3.1,4.1,8.2c0,11.4,0,22.8,0,34.2
	c0,22.7,0,45.4,0,68.1l0.5,0.2c11.6-28.4,20.4-58.8,37.7-84.5c7.5-11.1,16.9-21.9,29.9-26.4c7.6-2.6,15.1-2,22.8-0.8
	c4,0.6,4.8,0.6,5.2,4.7C447.2,531.6,446.9,536,446.9,540.3L446.9,540.3z"/>
<path class="st0" d="M171.8,637.2c-12.4,22.3-37.9,28.9-61.9,28.6c-22.1-0.3-42.4-15.6-53.5-34c-12.8-21.3-15.1-47.6-6.7-70.9
	c3.5-9.7,8.8-18.6,15.9-26.1c8.5-8.9,16.5-11.4,28.6-11.3c15.8,0.2,31.7,0.2,47.5,0.1c6.8,0,15.8-1.7,22.4-0.1
	c5.4,1.3,3,10.8,3,15.6c-9.6-2.8-18.4-6.4-28.4-7.5c-11.7-1.3-23.5-1.3-35.2-1.2c-5.4,0-10.8,0.1-16.3,0.1c-6.2,0-8.9,0.7-13.1,5.7
	c-6.5,7.9-10.2,18.3-12.3,28.1c-8.3,39.5,11.8,87.6,56.4,92.1c11.4,1.2,23.5-0.2,33.6-5.7c4.4-2.4,8.3-5.5,11.5-9.4
	C166.3,637.6,166.8,633.9,171.8,637.2L171.8,637.2z"/>
<path class="st0" d="M455.9,355.9H477c1.2,23.8,0.1,48,0.1,71.9c0,22.8-3.5,46.9,5.9,68.1h-27.1c6.9-9.2,5.7-20.9,6-31.7
	c0.3-12.5,0.5-25,0.5-37.4c0-12.6,0-25.2,0-37.9C462.2,377.4,462.4,365.9,455.9,355.9L455.9,355.9z"/>
<path class="st0" d="M3.4,301.1v-15.8c24.8-1.3,49.9-0.1,74.7-0.1c12.5,0,25,0,37.5,0c10.4,0,21.6,0.4,31.1,5.3
	c20.4,10.4,14.4,38.8,5.4,55.1c-4.7,8.5-11.2,16.2-18.4,22.7c-2.3,2.1-21,17.5-22.6,13.7c14.6-13.1,26.6-25.8,31.2-45.5
	c4-16.8,4.6-39.2-15.5-44.6c-9.8-2.7-21.2-1.2-31.3-1.3c-10.8,0-21.6-0.1-32.4,0.1C42.1,291.1,23.1,294.2,3.4,301.1L3.4,301.1z"/>
<path class="st0" d="M479.1,323.6c0.1,17-26.5,14.5-24.4-1.4C456.7,307.4,480.4,308.2,479.1,323.6z"/>
<path class="st0" d="M526.5,736.1c7.8,0,23.8-2.5,17.3,10.1c2.3,3.7,5.7,8.1,0.8,11.4c-4.5,3.1-12.9,1.4-18.1,1.4L526.5,736.1
	L526.5,736.1z M529.7,755.7c3,0,13.4,1.6,13.6-3.4c0.2-4.4-10.7-3.2-13.6-3.3V755.7L529.7,755.7z M529.7,745.1
	c2.8,0,12.2,1.8,12.5-2.6c0.3-4.8-9.8-3-12.5-3V745.1z"/>
<path class="st0" d="M190.9,759.4v-23.7c9.3,0.9,24-0.3,22.7,13.2C212.5,760.7,199.9,758.9,190.9,759.4L190.9,759.4z M194.6,739.6
	V756c6.8-0.7,15.9,0.1,15-9.3C208.8,738.4,200.9,739.6,194.6,739.6z"/>
<path class="st0" d="M262.7,736.2c5.8-1.6,15.8,13.7,19.2,17.5v-17.5h3.6v22.7c-4,1.2-6.6-3.3-8.9-5.8c-3.5-3.9-7.2-7.7-10.7-11.6
	V759h-3.2L262.7,736.2L262.7,736.2z"/>
<path class="st0" d="M76.9,736.2h3.3v22.7c-4.6,1.4-7.9-4.7-10.6-7.6c-2.9-3.2-6.5-6.1-8.2-10.1c-0.4,0.3-0.7,0.6-1.1,0.9V759h-3
	v-22.8c5.7-1.9,16.1,13.9,19.5,17.7V736.2L76.9,736.2z"/>
<path class="st0" d="M495.2,759.4v-23.5c9,0.4,23.1-1.4,22.5,11.7C517.1,760.8,505.1,758.8,495.2,759.4z M498.8,739.6v15.9
	c6.5,0,15.8,0.9,15.4-8.4C513.8,738.5,505.1,739.6,498.8,739.6z"/>
<path class="st0" d="M290.4,797.6c-15.7,1.6-17.4-22.2-1.5-23.3C306,773.2,308,797.6,290.4,797.6z M290.4,794.1
	c12,0,11.9-15.8,0.2-16.4C278.8,777.2,278,794.1,290.4,794.1z"/>
<path class="st0" d="M393.8,759.1c-14,0-17.7-19.7-3.4-23C408.9,731.8,413.2,759.1,393.8,759.1z M393.6,755.6
	c12.5,0,12.5-16.6,0.3-16.5C382.5,739.3,381.8,755.6,393.6,755.6z"/>
<path class="st0" d="M118.6,750.7v8.2h-3.3v-22.8c5.3,0,14.8-2.2,18.2,3c2.9,4.5,0.1,8.5-3.7,11c2,2.9,3.9,5.7,5.9,8.7
	c-5.4,1.4-5.5-3-8.6-6C124.4,750.2,122.3,750.5,118.6,750.7L118.6,750.7z M118.7,747.1c3.6,0,11.3,1.7,11.8-3.4
	c0.6-5.9-8.3-4-11.8-4C118.7,739.6,118.7,747.1,118.7,747.1z"/>
<path class="st0" d="M367.9,750.2c2,2.9,3.9,5.7,6,8.7c-5.3,1-5-2-7.8-5.4c-2.5-3.1-5.6-3.5-9.5-2.7v8.2h-3.3v-22.7
	c4.8,0,13.8-1.9,17.5,1.8C375,742.3,371.9,747.7,367.9,750.2z M356.7,747.1c3.3,0,12.3,1.7,12.4-3.8c0.1-5.5-9.1-3.7-12.4-3.7V747.1
	z"/>
<path class="st0" d="M383.8,797.3c-4.6,1.5-5.2-2-7.4-4.8c-2.5-3.3-5.6-4.3-9.7-3.1v8h-3.4v-22.7c5,0,14.1-2,17.8,2.2
	c3.8,4.3,0.7,9.4-3.3,11.7C379.8,791.6,381.8,794.4,383.8,797.3z M366.7,785.6c3.3,0,12.3,1.7,12.4-3.8c0-5.5-9.1-3.7-12.4-3.7
	V785.6z"/>
<path class="st0" d="M156.1,759.1c-15.5,2.1-17.6-21.6-1.8-23.4C171.7,733.9,173.7,759.1,156.1,759.1z M155.6,755.6
	c11,0,13.3-14.5,1.9-16.2C144.6,737.5,143.4,757,155.6,755.6z"/>
<path class="st0" d="M217.6,778.4c-0.8,0.8-1.5,1.5-2.4,2.5c-2.1-2.6-10.7-5.9-12.1-0.8s10.7,4.4,13.4,6.9c3.3,3.1,1.4,7.6-2,9.7
	c-5.2,3.1-12.8,1.3-16.6-3.2c0.7-0.8,1.4-1.7,2.2-2.7c2.9,2.5,10.2,7,13.4,2.2c3.3-5.1-10.1-5-12.6-7.7c-3.7-3.8-0.9-8.9,3.5-10.4
	C208.6,773.2,214.7,774.8,217.6,778.4L217.6,778.4z"/>
<path class="st0" d="M468.3,736.1h17.1v3.4h-13.5c-4.1,8.6,7.5,6.1,12,6.1v3.3h-12.1v6.6h13.8v3.4h-17.2L468.3,736.1L468.3,736.1z"
	/>
<path class="st0" d="M295.8,736.2H313v3.3h-13.7v6.1H311v3.5h-11.8v6.5H313v3.4h-17.2L295.8,736.2L295.8,736.2z"/>
<path class="st0" d="M225.7,749.1v6.5h13.8v3.4h-17.2v-22.8h17.2v3.2h-13.6v6.1h11.7v3.5L225.7,749.1L225.7,749.1z"/>
<path class="st0" d="M445.2,745.7H457c0.5,5.8-7.6,3.5-11.8,3.5v6.5h13.7v3.3h-17.2v-22.8h17.2v3.3h-13.7L445.2,745.7L445.2,745.7z"
	/>
<path class="st0" d="M48,755.6v3.3H30.6v-22.8h17.3v3.2H34.2v6.2h11.7c0.6,6-7.4,3.6-11.7,3.6v6.5L48,755.6L48,755.6z"/>
<path class="st0" d="M336.6,797.5v-22.8h17.3v3.2h-13.7v6.2h11.7c0.6,6-7.4,3.6-11.7,3.6v6.5h13.7v3.3H336.6L336.6,797.5z"/>
<path class="st0" d="M613.7,736.2h3.3v12c5.5-4.7,11.3-12.5,19.1-11.8c-3.7,3.1-7.2,6.1-10.8,9.1c3.6,4.5,7.1,8.9,10.7,13.5
	c-6.2,1.4-10-6.8-13.3-10.9c-4.8,2.2-6.8,5.8-5.4,11.1h-3.7L613.7,736.2L613.7,736.2z"/>
<path class="st0" d="M577.3,758.8c-5.1,1.7-4.6-2.9-6.4-5.2c-3.6,0-9.4-1.2-12.3,1c-2.5,1.9-1.3,5.8-5.8,4.3
	c1.8-3.9,7.7-23.1,12.5-22.7C570.2,736.7,575.3,754.5,577.3,758.8L577.3,758.8z M560.5,749.9h8.8c-1.5-3.4-2.9-6.6-4.5-10
	C563.3,743.5,562,746.7,560.5,749.9L560.5,749.9z"/>
<path class="st0" d="M390.2,797.3c2.2-4.8,4.3-9.7,6.5-14.5c2.3-4.9,2.7-7,7.6-8.7c3.6,8,7,15.6,10.4,23.2c-3.4,1.1-3.4-0.6-5.1-2.5
	c-2.6-3-2.8-2.6-7.3-2.6c-3.3,0-4.7-0.6-6.9,1.8C393.5,796,394.4,798.9,390.2,797.3z M402.4,778.4c-1.5,3.6-2.9,6.8-4.3,10.2h8.8
	C405.3,785.1,403.9,781.9,402.4,778.4L402.4,778.4z"/>
<path class="st0" d="M495.3,797.4c-3.3,1.2-3.4-0.7-5-2.7c-2.4-2.8-2.6-2.5-6.7-2.6c-2.4,0-4.9-0.7-6.9,1c-2.9,2.5-1.5,3.3-5.4,4.8
	c-0.1-0.2-0.3-0.4-0.4-0.7c2.3-5,4.5-10.1,6.8-15.1c1.1-2.4,2.2-7.7,5.5-7.7C487.9,774.5,493.7,793.3,495.3,797.4L495.3,797.4z
	 M483,778.6c-1.6,3.6-3,6.7-4.4,9.9h8.9C486,785.2,484.6,782.1,483,778.6L483,778.6z"/>
<path class="st0" d="M175.1,789.1v8.3H172v-22.8c6.1,0,18.9-2.5,19.1,6.9C191.2,789.9,180.8,789.1,175.1,789.1z M175.1,778.1
	c0,3.7-1.1,6.5,2.7,7.4c2.1,0.5,7.7,0.3,8.9-1.8C190.7,776.8,178.1,778.1,175.1,778.1L175.1,778.1z"/>
<path class="st0" d="M425.6,789.1v8.4h-3.3v-22.8c6.3,0,20.2-2.6,18.8,7.8C440.1,790.2,431.3,789.1,425.6,789.1z M425.7,785.5
	c3.4,0,10.5,1.5,11.7-2.9c1.6-6.2-8.4-4.5-11.7-4.5V785.5z"/>
<path class="st0" d="M322,736.2h3.6c0,6.6-2.4,21.4,8.8,19.3c7.9-1.5,5.7-13.3,6-19.3h3.4c-0.4,9.5,0.9,26.2-13.9,22.7
	C319.6,756.4,322,744.1,322,736.2L322,736.2z"/>
<path class="st0" d="M22.2,739.8c-1.8,4.2-6.2-0.1-9.4-0.3c-3.7-0.2-7.2,1.6-8.6,5.1c-4,9.8,9.9,14.3,16.1,8.2c0.6,1,1.2,1.9,1.8,3
	c-8.3,7.1-24,2.5-22-10C1.8,735.8,15.5,732.9,22.2,739.8z"/>
<path class="st0" d="M605.2,739.8c-1.7,4.2-6.2-0.1-9.3-0.3c-3.8-0.2-7.6,1.8-8.9,5.6c-3.2,9.7,10.2,13.7,16.3,7.8
	c0.7,1.1,1.2,2,1.8,2.8c-6.3,6.9-19.7,3.7-21.7-5.3C580.6,738.3,597.2,730.7,605.2,739.8L605.2,739.8z"/>
<path class="st0" d="M269,791.4c0.7,1.2,1.2,2,1.7,2.8c-6.4,6.2-18.8,4.4-21.6-4.5c-4.2-13,13.3-19.8,21.9-11.4
	c-0.7,0.8-1.4,1.7-2.1,2.7c-5.4-4.4-16.7-4-16.8,5C252,794.8,263.7,796.2,269,791.4L269,791.4z"/>
<path class="st0" d="M415.5,736.2h17.3v3.2h-14.1v6.6h12.6v3.4h-12.7v9.6h-3.1L415.5,736.2L415.5,736.2z"/>
<path class="st0" d="M463.5,774.7v2.6c-2.4,1.6-3.5-0.5-5.1,2c-1.7,2.6,0,11.6,0,14.8h5v3.5h-13.7v-3.3h4.8v-16h-4.9v-3.5
	L463.5,774.7L463.5,774.7z"/>
<path class="st0" d="M235.2,794.2h4.8v3.4h-13.8v-3.4h5.3v-15.8c-3.8-0.5-4.9,0.2-5.6-3.7h14v2.7
	C232.2,778.3,235.2,788.1,235.2,794.2L235.2,794.2z"/>
<path class="st0" d="M151.1,774.9c-2.7,3.7-6,7.4-8.3,11.3c-2.2,3.7-1.7,7.2-1.7,11.4h-3.5c0-4.4,0.3-8-2.1-11.8
	c-2.4-3.8-5.7-7.3-8.4-10.9c6.5-0.7,9,5.6,12.4,10.3C142.4,781.2,145.4,773.5,151.1,774.9L151.1,774.9z"/>
<path class="st0" d="M99.4,759h-3.6v-19.4h-8.1v-3.4h19.8c0,0.7,0.1,1.6,0.2,2.9c-1.1,0-2.2,0-3.2,0c-5.8,0-4.9-0.5-5,5.1
	C99.4,749.1,99.4,754,99.4,759L99.4,759z"/>
<path class="st0" d="M328.5,774.7v2.9c-5.2,0-7.6-1.3-7.8,4.4c-0.1,5.1,0,10.3,0,15.4h-3.6v-19.3h-7.9v-3.5L328.5,774.7L328.5,774.7
	z"/>
<path class="st1" d="M307.6,618.6c0-0.5,0-0.9,0.1-1.4C307.6,617.7,307.6,618.1,307.6,618.6z"/>
<path class="st1" d="M205.2,466l-0.7,0.9c0-0.5,0-1,0.1-1.5C204.7,465.6,204.9,465.8,205.2,466L205.2,466z"/>
<path class="st2" d="M342.5,198.8C342.5,198.8,342.6,198.8,342.5,198.8c-0.8-0.2-1.7-0.4-2.5-0.6
	C340.9,198.4,341.7,198.6,342.5,198.8L342.5,198.8z"/>
<path class="st2" d="M355.4,201.8C355.4,201.8,355.4,201.8,355.4,201.8c-0.8-0.2-1.6-0.4-2.4-0.5
	C353.8,201.4,354.6,201.6,355.4,201.8z"/>
<path class="st2" d="M355.4,201.8C355.4,201.8,355.4,201.8,355.4,201.8c-0.8-0.2-1.6-0.4-2.4-0.5
	C353.8,201.4,354.6,201.6,355.4,201.8z"/>
<path class="st2" d="M342.5,198.8C342.5,198.8,342.6,198.8,342.5,198.8c-0.8-0.2-1.7-0.4-2.5-0.6
	C340.9,198.4,341.7,198.6,342.5,198.8L342.5,198.8z"/>
<path class="st2" d="M294.3,184c0.3,0.1,0.6,0.3,1,0.4c0.9,0.3,1.7,0.6,2.6,1c-0.9-0.3-1.7-0.6-2.5-1
	C294.9,184.3,294.6,184.2,294.3,184L294.3,184z"/>
<linearGradient id="SVGID_1_" gradientUnits="userSpaceOnUse" x1="205.7802" y1="694.1296" x2="416.2472" y2="694.1296" gradientTransform="matrix(1 0 0 -1 0 797.89)">
	<stop  offset="0" style="stop-color:#D7AFA0"/>
	<stop  offset="1" style="stop-color:#CE937A"/>
</linearGradient>
<path class="st3" d="M394.9,37.6C374,9,335.5-3.7,301.2,0.9C260.7,6.3,226.7,32,211.9,70c-3.4,8.7-6.4,19.2-6.1,28.7
	c0.2,8.1,2.5,16,4.2,23.8c0.8,3.5,1.3,6.9,1.4,10.2c0.3,0.4,0.6,0.8,1,1.2c23.1,17.9,48.4,35.8,75.5,47.5c3.8,1.6,7.5,3.1,11.1,4.4
	c0.2,0.1,0.4,0.2,0.6,0.2c1,0.4,2.1,0.8,3.2,1.1c0.7,0.2,1.3,0.5,2,0.7c1,0.4,2,0.7,3,1c0.7,0.2,1.4,0.5,2.1,0.7c1,0.3,2,0.7,3,1
	c0.7,0.2,1.4,0.4,2.1,0.7c1,0.3,2,0.6,3,0.9c0.7,0.2,1.4,0.4,2,0.6c1,0.3,2.1,0.6,3.2,0.9c0.6,0.2,1.2,0.4,1.8,0.5
	c1.1,0.3,2.2,0.6,3.4,0.9c0.5,0.1,1,0.2,1.4,0.4c1.3,0.3,2.5,0.7,3.8,1c0.1,0,0.1,0,0.2,0.1c1.9,0.5,3.8,1,5.8,1.5
	c0.1,0,0.2,0,0.2,0.1c0.9,0.2,1.7,0.4,2.6,0.6c1,0.2,1.9,0.5,2.9,0.7c1.2,0.3,2.4,0.6,3.6,0.9c0.7,0.1,1.3,0.3,2,0.5
	c0.6,0.1,1.3,0.3,1.9,0.4c0.8,0.2,1.6,0.4,2.4,0.5c0.4,0.1,0.8,0.2,1.2,0.3l0,0c0.2,0.1,0.5,0.1,0.8,0.2c1.4,0.3,2.9,0.6,4.3,0.9
	c0.1,0,0.2,0.1,0.3,0.1c2.5,0.5,5.1,1.1,7.6,1.6c0.6,0.1,1.2,0.2,1.8,0.4c2.5,0.5,4.9,1,7.4,1.5c2.4,0.3,4.5,0.6,6.6,0.8
	c0.1-1,0.2-1.9,0.4-2.8c2.3-9.7,9.8-18.8,13.9-28c4.3-9.8,8.1-20.1,11-30.4C420.9,109.8,417.8,69,394.9,37.6L394.9,37.6z"/>
<path class="st4" d="M378.8,206.7c-2.5-0.5-4.9-1-7.4-1.5c-0.6-0.1-1.2-0.2-1.8-0.4c-2.5-0.5-5.1-1.1-7.6-1.6
	c-0.1,0-0.2-0.1-0.3-0.1c-1.4-0.3-2.9-0.6-4.3-0.9c-0.2-0.1-0.5-0.1-0.8-0.2l0,0c-0.4-0.1-0.8-0.2-1.2-0.3c0,0,0,0,0,0
	c-0.8-0.2-1.6-0.4-2.4-0.5c-0.6-0.1-1.3-0.3-1.9-0.4c-0.7-0.1-1.3-0.3-2-0.5c-1.2-0.3-2.4-0.6-3.6-0.9c-1-0.2-1.9-0.5-2.9-0.7
	c0,0,0,0,0,0c-0.9-0.2-1.7-0.4-2.5-0.6c-0.1,0-0.2,0-0.2-0.1c-1.9-0.5-3.8-1-5.8-1.5c-0.1,0-0.1,0-0.2-0.1c-1.3-0.3-2.5-0.7-3.8-1
	c-0.5-0.1-1-0.2-1.4-0.4c-1.1-0.3-2.2-0.6-3.4-0.9c-0.6-0.2-1.2-0.3-1.8-0.5c-1-0.3-2.1-0.6-3.2-0.9c-0.7-0.2-1.4-0.4-2-0.6
	c-1-0.3-2-0.6-3-0.9c-0.7-0.2-1.4-0.4-2.1-0.7c-1-0.3-2-0.6-3-1c-0.7-0.2-1.4-0.5-2.1-0.7c-1-0.3-2-0.7-3-1c-0.7-0.2-1.3-0.5-2-0.7
	c-1-0.4-2.1-0.8-3.2-1.1c-0.2-0.1-0.4-0.2-0.6-0.2c-3.6-1.4-7.4-2.9-11.1-4.4c-27.1-11.7-52.4-29.6-75.5-47.5
	c-0.4-0.4-0.7-0.9-1-1.2c0.2,5.6-0.6,11.1-3.4,16.9c-2.1,4.4-5.1,8.5-7.7,12.6c-1.8,2.9-5.1,7.5-5.2,11.5c-0.1,3.8,0,3.5,0,3.5
	c2.8,7.8,14.8,4.1,16.7,13.9c0.6,3.2-1.1,8.2,0.4,11.2c1.2,2.3,3.7,1.8,5.2,3.5c-2,4.6-3.2,7.4,1.5,10.3c3.6,2.1,5.3,1.8,6.1,6.3
	c1.7,10.1-3.3,18.5,8.6,23.5c9.1,3.8,19.9,0.9,29.2-0.8c5.9-1.1,11-2.7,16.6-4.7c4.5-1.6,5.6-0.8,7.8,3.3c2.5,4.6,3.9,9.4,4.9,14.5
	c1.2,6,1.4,6.9,7.5,7c12.1,0.2,24.2,0,36.3,0c12.1,0,24.2,0,36.2,0c11.1,0,23.6,1.6,34.4-0.8c-5.3-9.6-9.9-18.9-13.9-29.1
	c-3-7.5-7.9-18.9-7.3-27.7C383.4,207.3,381.2,207,378.8,206.7L378.8,206.7z M295.3,184.4c-0.3-0.1-0.6-0.3-1-0.4
	C294.6,184.2,294.9,184.3,295.3,184.4c0.9,0.3,1.7,0.6,2.5,1C297,185.1,296.1,184.7,295.3,184.4L295.3,184.4z"/>
<path class="st5" d="M357.1,33.3c-0.7,1.8,0.4,2.5,1.9,3.3c8.4,4.8,15.1,11.5,20.8,19.3c7.9,10.8,12.9,22.9,15.3,36
	c0.2,1.1,0.6,1.7,1.6,2.3c9.5,5.1,10.2,18,1.1,23.8c-1.5,1-2,2.1-2.3,3.9c-1.5,10.1-4.1,19.9-7.6,29.5c-1.9,5.3-4.1,10.4-6.6,15.4
	c-0.6,1.2-0.5,1.8,0.4,2.8c7,7.6,3.7,19.7-6.2,22.6c-7.5,2.3-15.5-2.2-17.2-9.9c-0.4-2-1.4-2.5-3.1-2.8
	c-15.8-3.3-31.3-7.8-46.4-13.2c-1.6-0.6-2.6-0.5-3.9,0.7c-4.2,3.8-9.2,4.7-14.3,2.6c-5.3-2.2-8.5-6.4-8.5-12.4
	c0-1.3-0.5-1.9-1.6-2.4c-11.6-5-22.6-11.4-33.5-17.8c-2.5-1.5-4.8-3.2-7.2-4.8c-1.4-0.9-2.8-1.1-4.4-1c-5.5,0.5-9.8-1.7-12.8-6.2
	c-3.1-4.6-3.2-9.5-0.5-14.4c1.1-2,2.5-3.7,4.5-4.8c0.8-0.5,1.2-1.1,1.2-2.1c0.1-16.9,6.2-31.7,16.3-45c1-1.3,1-2.1,0.2-3.5
	c-3.3-5.4-2.1-12.3,2.5-16.9c4.5-4.3,11.6-5,16.8-1.7c0.5,0.3,1,0.5,1.3,0.9c1,1.1,1.9,0.8,3.2,0.1c11.6-6.8,24.1-11,37.6-12.2
	c8-0.7,15.9-0.6,23.8,0.8c1.1,0.2,1.7-0.1,2.3-1c3.4-5.1,8.3-7,14.2-6c5.8,1,9.8,5.3,11,11.3C357,31.4,357,32.3,357.1,33.3z
	 M358,172.5c0.9,0.1,1.4-0.2,1.9-0.9c0.6-0.9,1.2-1.8,2-2.5c0.8-0.8,0.9-1.4,0.5-2.5c-6.6-16.2-13.2-32.5-19.8-48.7
	c-1.1-2.6-3.9-3.1-5.8-1c-5.7,6.2-11.3,12.5-17,18.8c-3.6,4-7.2,8-10.8,12c-0.9,1-1.6,1.7-0.7,3.3c1,1.7,1.4,3.7,1.3,5.6
	c-0.1,1.4,0.4,2,1.7,2.5c10.1,3.6,20.3,6.8,30.7,9.5C347.2,170,352.6,171.2,358,172.5z M374.9,102.5c1.4,0.2,2.1-0.2,2.7-1.5
	c1.5-3.5,4-6.1,7.7-7.3c1.8-0.6,2-1.5,1.6-3.1c-2.7-12-7.7-23-15.3-32.7c-4.5-5.7-9.8-10.6-16-14.4c-1.4-0.8-2.6-1.3-3.9,0.2
	c-1,1-2.3,1.7-3.7,2.1c-1.1,0.3-1.5,0.9-1.5,2c-0.1,7.6-0.3,15.1-0.4,22.7c-0.1,5.6,0,11.2-0.3,16.8c0,1.3,0.2,1.7,1.3,2.2
	c4.7,2.1,7.6,5.7,8.2,10.9c0.2,1.4,0.7,1.8,2,1.8C363.3,102.2,369.2,102,374.9,102.5z M313.5,32.7c-3.9,0-7.7,0.3-11.5,0.9
	c-10.6,1.7-20.6,5.2-30,10.5c-1.6,0.9-2.5,1.8-2.2,3.8c0.4,2.5-0.2,4.8-1.5,7c-0.4,0.7-0.6,1.2,0.1,2c4.3,4.8,8.5,9.6,12.7,14.4
	c0.7,0.8,1.2,1,2.2,0.5c4.3-2.4,8.6-2.5,13-0.3c0.9,0.5,1.6,0.4,2.3-0.3c2.8-2.6,5.6-5.1,8.4-7.6c4.1-3.7,8.1-7.6,12.2-11.2
	c3.9-3.5,7.7-7.1,11.8-10.4c0.6-0.5,0.8-1,0.3-1.7c-0.8-1.2-1.6-2.6-1.7-4.1c-0.1-1.9-1.2-2.3-2.7-2.4
	C322.5,33.1,318,32.8,313.5,32.7z M290.6,141.3c-0.2-2.8-0.3-5.1-0.5-7.5c-0.9-11.5-1.9-23.1-2.8-34.6c-0.2-2-3.6-3.9-5.4-2.9
	c-10.9,6.1-21.9,12.3-32.8,18.4c-0.9,0.5-1.2,1-1.2,2.1c0.2,2.8-0.5,5.4-2.1,7.7c-1,1.5-0.7,2.1,0.7,3c11.4,7.3,23.4,13.7,35.6,19.6
	c1.6,0.8,2.9,1.3,4.1-0.5c0.5-0.7,1.3-1.3,2.1-1.6C290.3,144.2,291.2,143,290.6,141.3z M235.2,101.6c-0.5,1.4,0.6,2.3,2.7,2.6
	c2.1,0.3,4,1.4,5.4,3c1.1,1.2,1.9,1,3.1,0.3c10-5.7,20-11.3,30-16.9c0.9-0.5,1.3-0.9,0.8-2c-1.2-2.8-1.2-5.8-0.3-8.7
	c0.3-1.1,0.1-1.8-0.6-2.5c-4.5-5.1-8.9-10.1-13.3-15.2c-0.7-0.8-1.3-0.9-2.3-0.5c-1.8,0.6-3.8,1.4-5.5,0.7c-3.5-1.4-5.2,0.4-6.7,3
	c-0.3,0.5-0.7,1-1,1.5C240.6,77.1,236.4,88.3,235.2,101.6z M371.7,165c1.2,0.3,2,0,2.6-1.2c6.6-13.3,10.9-27.4,13.5-42
	c0.2-1,0-1.7-1.2-2c-4.5-1.2-7.5-4.1-9.2-8.4c-0.4-1.1-0.9-1.6-2.2-1.5c-5.5,0-11,0.2-16.4-0.2c-3.5-0.3-6.1,0.3-8.3,3.2
	c-0.8,1-1,1.6-0.6,2.7c6.5,15.9,13,31.9,19.4,47.8C369.7,164.5,370.2,165.5,371.7,165z M339.1,47.3c0-0.2,0.3-1-0.5-1.3
	c-0.8-0.4-1.2,0.5-1.6,0.9c-3.4,3-6.7,6-10.1,9.1c-7.8,7-15.5,14-23.3,21c-0.7,0.6-0.9,1.2-0.5,2.1c1,2.4,1.1,5,0.5,7.5
	c-0.2,1.1,0.2,1.4,1.1,1.7c7.6,2.7,15.2,5.4,22.9,8.2c1.1,0.4,1.5,0.1,2-0.9c1.6-3.1,4-5.2,7.3-6.4c1.3-0.5,1.5-1.1,1.5-2.4
	c0.1-6.1,0-12.1,0.3-18.2C339,61.7,338.6,54.7,339.1,47.3z M299,94.5c-1.3,0.8-2.8,1.7-4.3,2.6c-0.1,0.1-0.1,0.5-0.1,0.8
	c0.4,4.8,0.7,9.7,1.1,14.5c0.8,9.6,1.6,19.2,2.3,28.8c0.1,1.1,0.1,1.9,1.4,2.2c1.2,0.3,2.2,0.8,3.3-0.6c5.2-6.1,10.8-12.1,16.1-18.1
	c3.6-4.2,7.5-8.2,11.2-12.2c0.8-0.8,1.1-1.4,0.2-2.4c-1-1.1-1.6-2.5-2-4c-0.3-1-0.8-1.5-1.8-1.9c-6.8-2.4-13.6-4.8-20.4-7.2
	C304,96.2,301.6,95.4,299,94.5z"/>
</svg>
